<svg xmlns="http://www.w3.org/2000/svg" width="37.981" height="25.342"><g data-name="Grupo 153" fill="#fff"><path data-name="Trazado 109" d="M15.37 11.337c.482.242.88.435 1.272.64a4.8 4.8 0 0 1 2.327 2.637 7.542 7.542 0 0 1-.654 7.183 6.454 6.454 0 0 1-3.961 2.631 17.892 17.892 0 0 1-4.5.444c-3.089-.014-6.178 0-9.267-.005-.583 0-.584 0-.584-.575V.507c0-.5 0-.5.489-.5h10.684a10.9 10.9 0 0 1 3.991.661 4.648 4.648 0 0 1 2.938 3.1 6.858 6.858 0 0 1-.3 5.23 5.49 5.49 0 0 1-2.064 2.094c-.104.06-.198.128-.371.245ZM5.125 17.201v3.049c0 .248.066.381.348.379 1.961-.015 3.924.021 5.883-.044a2.926 2.926 0 0 0 2.677-1.479 3.881 3.881 0 0 0 .091-3.54 3.074 3.074 0 0 0-2.912-1.765c-1.9-.048-3.8-.009-5.7-.022-.315 0-.389.121-.386.409.007 1.004-.001 2.009-.001 3.013Zm2.983-7.147v-.035c.956 0 1.913.027 2.867-.009a2.515 2.515 0 0 0 1.771-.813 3.088 3.088 0 0 0 .624-3.02 2.064 2.064 0 0 0-1.25-1.507 4.519 4.519 0 0 0-1.53-.378c-1.669-.054-3.34-.022-5.01-.046-.382-.006-.465.139-.462.489q.018 2.449-.006 4.9c0 .315.1.43.418.426.859-.016 1.719-.007 2.578-.007Z"/><path data-name="Trazado 110" d="M31.862 17.028h-5.56c-.506 0-.506.013-.513.5a4.3 4.3 0 0 0 1 2.887 3.37 3.37 0 0 0 2.193 1.175 4.355 4.355 0 0 0 3.582-.925 4.721 4.721 0 0 0 .843-1.069.542.542 0 0 1 .513-.31q1.635.014 3.271 0c.315 0 .418.1.321.414a7.328 7.328 0 0 1-5.46 5.341 9.369 9.369 0 0 1-5.267-.176 7.555 7.555 0 0 1-4.845-4.541 11.1 11.1 0 0 1 .517-9.841 7.8 7.8 0 0 1 5.279-3.889 8.166 8.166 0 0 1 5.363.46 7.583 7.583 0 0 1 3.62 3.532 11.91 11.91 0 0 1 1.253 6.079c-.01.336-.18.361-.441.36-1.89-.006-3.78 0-5.67 0Zm-2.35-3.07h3.377c.182 0 .409.017.38-.257a4.352 4.352 0 0 0-1.236-2.792 3.238 3.238 0 0 0-2.722-.806 3.714 3.714 0 0 0-3.518 3.4c-.05.418-.019.457.414.458 1.102-.002 2.203-.004 3.305-.004Z"/><path data-name="Trazado 111" d="M29.537 1.645c1.442 0 2.884.008 4.326-.007.3 0 .379.1.371.375a34.694 34.694 0 0 0 0 1.707c.007.27-.1.363-.36.363q-4.38-.008-8.761 0c-.249 0-.345-.092-.339-.343.012-.569.017-1.138 0-1.707-.008-.3.1-.4.4-.4 1.455.018 2.91.012 4.363.012Z"/></g></svg>