<svg xmlns="http://www.w3.org/2000/svg" width="1100.522" height="575.273"><defs><linearGradient id="a" x1=".5" y1="-.34" x2=".5" y2="1.677" gradientUnits="objectBoundingBox"><stop offset="0" stop-color="#af80f5"/><stop offset=".498" stop-color="#623eb3"/><stop offset="1" stop-color="#50468b"/></linearGradient><clipPath id="b"><rect data-name="Rectángulo 24" width="1100.522" height="575.273" rx="57.59" transform="translate(409.739 1548.375)" fill="none"/></clipPath></defs><g data-name="Grupo 276" transform="translate(-409.739 -1548.375)"><rect data-name="Rectángulo 23" width="1100.522" height="575.273" rx="57.59" transform="translate(409.739 1548.375)" fill="url(#a)"/><g data-name="Grupo 47"><g data-name="Grupo 45" opacity=".21" style="mix-blend-mode:soft-light;isolation:isolate"><g data-name="Grupo 44" clip-path="url(#b)"><g data-name="Grupo 39" opacity=".6"><g data-name="Grupo 36" fill="#fff"><path data-name="Trazado 18" d="M166.2 1910.131v-42.563a7.75 7.75 0 0 1 7.751-7.75h139.921a7.75 7.75 0 0 1 7.751 7.75v42.563a7.75 7.75 0 0 1-7.751 7.75H173.954a7.75 7.75 0 0 1-7.754-7.75Z"/><path data-name="Trazado 19" d="M380.117 1910.131v-42.563a7.75 7.75 0 0 1 7.751-7.75h139.918a7.75 7.75 0 0 1 7.75 7.75v42.563a7.75 7.75 0 0 1-7.75 7.75H387.868a7.75 7.75 0 0 1-7.751-7.75Z"/><path data-name="Trazado 20" d="M545.022 2210.609h-61.556v-28.376q-25.324 31.874-62.648 31.871t-62.648-21.612q-25.323-21.612-25.32-57.628t26.194-53.917q26.193-17.895 71.6-17.9h48.9v-1.309q0-37.545-39.727-37.545-17.026 0-36.017 6.764t-32.1 16.814l-29.251-42.349q46.27-33.614 105.65-33.615 42.781 0 69.851 21.392t27.067 67.668Zm-65.921-89.5v-11.352h-41.038q-39.292 0-39.291 24.449 0 12.666 9.385 19.428t26.849 6.765a47.72 47.72 0 0 0 30.779-10.7q13.315-10.681 13.315-28.586Z"/><path data-name="Trazado 21" d="M610.287 1945.83a39 39 0 1 1 27.285 11.133 37.1 37.1 0 0 1-27.285-11.133Zm60.028 264.779H604.83v-234.875h65.485Z"/><path data-name="Trazado 22" d="M797.79 2079.638v130.971H732.3v-234.875h65.49v26.2q29.682-30.125 66.794-30.123T926.8 1998q25.1 26.193 25.1 69.851v142.758h-65.487v-132.715q0-54.131-39.728-54.136-19.645 0-34.27 14.189t-14.625 41.691Z"/></g><g data-name="Grupo 37"><path data-name="Trazado 23" d="m246.964 1677.516 77.71-194.274h73.779L275.777 1788.4H218.15L95.475 1483.242h73.779Z" fill="#fff"/></g><g data-name="Grupo 38"><path data-name="Trazado 24" d="M433.592 1523.625a39.007 39.007 0 1 1 27.286 11.132 37.1 37.1 0 0 1-27.286-11.132Zm60.029 264.775h-65.486v-234.871h65.486Z" fill="#fff"/></g></g><g data-name="Grupo 43" opacity=".6"><g data-name="Grupo 40" fill="#fff"><path data-name="Trazado 25" d="M1403.9 1910.131v-42.563a7.75 7.75 0 0 1 7.75-7.75h139.919a7.75 7.75 0 0 1 7.75 7.75v42.563a7.75 7.75 0 0 1-7.75 7.75h-139.92a7.75 7.75 0 0 1-7.749-7.75Z"/><path data-name="Trazado 26" d="M1617.813 1910.131v-42.563a7.75 7.75 0 0 1 7.75-7.75h139.919a7.75 7.75 0 0 1 7.75 7.75v42.563a7.75 7.75 0 0 1-7.75 7.75h-139.919a7.75 7.75 0 0 1-7.75-7.75Z"/><path data-name="Trazado 27" d="M1782.717 2210.609h-61.555v-28.376q-25.324 31.874-62.648 31.871t-62.648-21.612q-25.323-21.612-25.321-57.628t26.194-53.917q26.193-17.895 71.6-17.9h48.9v-1.309q0-37.545-39.728-37.545-17.025 0-36.017 6.764t-32.086 16.811l-29.251-42.349q46.269-33.614 105.65-33.615 42.78 0 69.851 21.392t27.066 67.668Zm-65.921-89.5v-11.352h-41.038q-39.291 0-39.291 24.449 0 12.666 9.386 19.428t26.849 6.765a47.721 47.721 0 0 0 30.779-10.7q13.311-10.681 13.319-28.586Z"/><path data-name="Trazado 28" d="M1847.982 1945.83a39 39 0 1 1 27.286 11.133 37.1 37.1 0 0 1-27.286-11.133Zm60.029 264.779h-65.486v-234.875h65.486Z"/><path data-name="Trazado 29" d="M2035.485 2079.638v130.971H1970v-234.875h65.485v26.2q29.682-30.125 66.8-30.123t62.206 26.189q25.1 26.193 25.1 69.851v142.758h-65.485v-132.715q0-54.131-39.728-54.136-19.647 0-34.271 14.189t-14.622 41.691Z"/></g><g data-name="Grupo 41"><path data-name="Trazado 30" d="m1484.659 1677.516 77.71-194.274h73.78L1513.472 1788.4h-57.627l-122.675-305.158h73.78Z" fill="#fff"/></g><g data-name="Grupo 42"><path data-name="Trazado 31" d="M1671.288 1523.625a39.006 39.006 0 1 1 27.285 11.132 37.1 37.1 0 0 1-27.285-11.132Zm60.028 264.778h-65.485v-234.874h65.485Z" fill="#fff"/></g></g></g></g></g></g></svg>