<svg xmlns="http://www.w3.org/2000/svg" width="299.351" height="69.833"><g data-name="Grupo 89" fill="#5e5e5e"><path data-name="Trazado 36" d="M109.875 17.219c.1.3.352.337.551.431a13.85 13.85 0 0 1 1.868 1.076 6.4 6.4 0 0 1 2.594 3.443 8.686 8.686 0 0 1-.115 5.679 7.29 7.29 0 0 1-3.843 4.122 14.387 14.387 0 0 1-4.28 1.229 17.1 17.1 0 0 1-2.613.175H90.152c-1.042 0-1.062-.022-1.062-1.093V3.752c0-.206 0-.412.015-.616.03-.33.145-.45.489-.477.615-.047 1.231-.1 1.847-.1 3.6-.01 7.2-.034 10.8.009a23.225 23.225 0 0 1 4.526.385 9.906 9.906 0 0 1 3.614 1.491 6.934 6.934 0 0 1 3.083 4.95 9.052 9.052 0 0 1-.112 3.062 6.673 6.673 0 0 1-2.607 4.057 4.232 4.232 0 0 0-.87.706Zm-9.293 10.161v-.021c1.386 0 2.772.008 4.158 0a4.76 4.76 0 0 0 2.408-.714 2.594 2.594 0 0 0 .69-.6 3.1 3.1 0 0 0-1.151-4.787 6.376 6.376 0 0 0-2.7-.538q-3.7-.014-7.392 0c-.8 0-.858.061-.862.894q-.009 2.424 0 4.849c0 .859.065.918.919.923 1.312-.001 2.621-.006 3.93-.006Zm-.947-12.355v-.012c1 0 2 .011 3 0a6.2 6.2 0 0 0 2.392-.515 2.978 2.978 0 0 0 1.186-4.528 3.143 3.143 0 0 0-1.792-1.116 8.617 8.617 0 0 0-2.359-.29c-1.77-.019-3.54-.009-5.31 0-.957 0-1.013.056-1.017.988-.006 1.513 0 3.026 0 4.539a4 4 0 0 0 .03.536.4.4 0 0 0 .408.385 4.816 4.816 0 0 0 .538.02q1.461-.005 2.924-.007Z"/><path data-name="Trazado 37" d="M145.34 14.174a2.657 2.657 0 0 0-.115.416c-.013.256-.012.514-.012.77V31.7a9.145 9.145 0 0 1-.087 1.226c-.041.3-.169.393-.461.43a3.917 3.917 0 0 1-.461.021c-1.594 0-3.187.005-4.781 0-.921 0-.966-.048-.966-.954q-.006-6.05 0-12.1V3.983c0-.282-.005-.566.016-.847.025-.33.143-.443.49-.474a33.091 33.091 0 0 1 4.466-.073c.257.012.513.059.769.055a1.119 1.119 0 0 1 .968.523c.674.907 1.37 1.8 2.056 2.7l5.422 7.1c.965 1.267 1.918 2.542 2.881 3.811q1.469 1.934 2.945 3.859c.12.157.268.293.456.5a1.527 1.527 0 0 0 .171-.382c.024-.255.018-.513.018-.769V3.954c0-.282 0-.566.024-.846a.42.42 0 0 1 .447-.437c.563-.048 1.128-.11 1.692-.1 1.284.009 2.567.056 3.851.088a1.579 1.579 0 0 1 .23.021.416.416 0 0 1 .4.4 5.029 5.029 0 0 1 .029.614v28.671c0 .129 0 .258-.005.386-.033.509-.13.625-.665.63-1.517.013-3.033 0-4.55.008a1.168 1.168 0 0 1-.964-.545c-.47-.611-.934-1.226-1.4-1.838-.906-1.182-1.818-2.36-2.72-3.545-.715-.941-1.411-1.9-2.127-2.835q-2.545-3.339-5.1-6.67c-.811-1.062-1.616-2.127-2.427-3.188-.123-.176-.263-.324-.49-.594Z"/><path data-name="Trazado 38" d="M215.007 14.248a.868.868 0 0 0-.131.265c-.022.281-.025.565-.025.847v16.731c0 .283 0 .566-.025.847a.4.4 0 0 1-.388.407 3.216 3.216 0 0 1-.46.031c-1.62 0-3.24.006-4.86 0-.874 0-.921-.052-.924-.916-.006-1.748 0-3.495 0-5.243V4.009c0-.282-.007-.566.013-.847.026-.369.141-.475.543-.5.538-.04 1.078-.1 1.616-.093 1.182.01 2.363.06 3.545.08a1.088 1.088 0 0 1 .914.471c.788 1.047 1.6 2.077 2.391 3.12 1.182 1.555 2.349 3.121 3.535 4.673 1.685 2.205 3.385 4.4 5.071 6.6.75.98 1.48 1.974 2.221 2.96a5.411 5.411 0 0 0 .392.475 1.254 1.254 0 0 0 .3.16 2.439 2.439 0 0 0 .1-.4c.016-.256.012-.514.012-.771V4.054c0-.282 0-.566.016-.847.028-.385.144-.5.515-.54.409-.039.82-.088 1.23-.087 1.105 0 2.209.024 3.314.044.36.006.72.017 1.078.046s.46.147.491.476c.019.205.016.411.016.617V32.29c0 1.075-.017 1.091-1.06 1.094-1.26 0-2.521-.031-3.779.012a1.613 1.613 0 0 1-1.5-.742c-.22-.316-.459-.619-.693-.925l-7.354-9.612c-.966-1.266-1.915-2.545-2.877-3.815q-1.328-1.75-2.667-3.492a1.436 1.436 0 0 0-.57-.562Z"/><path data-name="Trazado 39" d="M35.028 69.833a1.235 1.235 0 0 1-.716-.48q-4.641-4.627-9.278-9.261-5.291-5.286-10.575-10.58a4.142 4.142 0 0 1-.9-1.007 1.371 1.371 0 0 1 .512-.7q1.491-1.507 2.994-3l3.6-3.6a1.91 1.91 0 0 1 .662-.533c.327.066.508.333.721.546q2.568 2.558 5.128 5.123 3.546 3.544 7.094 7.085c.194.193.348.453.688.5a2.871 2.871 0 0 0 .723-.653c.251-.258.489-.528.746-.78.992-.97 2-1.928 2.982-2.9 1.442-1.428 2.872-2.867 4.307-4.3l4.249-4.249c.142-.142.3-.267.427-.379a1.332 1.332 0 0 1 .73.5q2.6 2.582 5.183 5.173.818.82 1.624 1.647c.137.142.249.309.388.485a8.88 8.88 0 0 1-.94 1.062l-9.87 9.86q-4.91 4.906-9.818 9.813c-.216.22-.444.423-.661.628Z"/><path data-name="Trazado 40" d="M48.564 29.147a1.886 1.886 0 0 1-.814-.615q-5-4.981-9.982-9.971-1.145-1.144-2.294-2.286c-.16-.158-.342-.293-.489-.417a1.376 1.376 0 0 0-.721.521q-3.468 3.456-6.927 6.92l-5.238 5.23a2.669 2.669 0 0 1-.692.583c-.34-.025-.505-.276-.7-.47q-1.56-1.546-3.111-3.1l-3.489-3.489c-.091-.091-.184-.18-.271-.275-.36-.393-.364-.5.027-.9q1.821-1.832 3.651-3.654l15.485-15.48q.681-.681 1.366-1.359a3.452 3.452 0 0 1 .344-.309.322.322 0 0 1 .425.006c.157.133.307.275.452.42q10.035 10.025 20.068 20.056c.748.748.751.809.024 1.536q-3.269 3.275-6.545 6.539c-.179.179-.375.34-.569.514Z"/><path data-name="Trazado 41" d="M275.895 18.024V3.918c0-.256 0-.514.019-.77.029-.33.146-.456.486-.483.615-.051 1.231-.107 1.846-.108q8.136-.012 16.272 0c1.284 0 2.568.06 3.852.094a2.385 2.385 0 0 1 .306.029.4.4 0 0 1 .364.345 3.565 3.565 0 0 1 .039.537c0 1.413.007 2.826 0 4.239 0 .817-.065.88-.881.881q-6.516.006-13.032 0c-.643 0-1.286-.007-1.928.012-.4.011-.505.122-.541.5-.017.179-.014.36-.014.54v4.085c0 1.014.033 1.048 1.03 1.049h12.107c.283 0 .566 0 .847.031a.4.4 0 0 1 .393.4 3.548 3.548 0 0 1 .022.461c0 1.413.007 2.826 0 4.24-.005.816-.061.875-.883.876q-5.939.012-11.876.011c-.334 0-.669-.008-1 .007-.509.022-.6.129-.633.659-.006.1-.005.206-.005.309v4.47c0 .979.029 1.007.985 1.008h9.485q2.544 0 5.089.012h.232c.815.012.869.057.873.881q.009 2.12 0 4.24c0 .825-.065.883-.866.9-.411.006-.822 0-1.234 0h-19.976c-.308 0-.617 0-.924-.027-.284-.025-.405-.157-.432-.45-.023-.255-.021-.513-.021-.77q-.002-7.049-.001-14.102Z"/><path data-name="Trazado 42" d="M170.82 33.286a2.473 2.473 0 0 1 .283-.985q2.634-6.209 5.278-12.413l6.187-14.539c.353-.827.719-1.648 1.063-2.479a.683.683 0 0 1 .7-.482h4.705c.18 0 .36.008.54 0a.688.688 0 0 1 .719.466c.166.4.351.8.523 1.2q1.835 4.285 3.666 8.574c1.217 2.861 2.418 5.728 3.635 8.589.895 2.1 1.81 4.2 2.708 6.3.514 1.205 1.009 2.418 1.516 3.627.209.5.428.99.635 1.488.068.164.114.337.184.547a1.224 1.224 0 0 1-.332.165 4.035 4.035 0 0 1-.615.026c-1.723 0-3.446-.026-5.167.017a1.1 1.1 0 0 1-1.2-.819c-.364-.961-.781-1.9-1.173-2.851-.343-.832-.705-1.656-1.012-2.5a.937.937 0 0 0-1.052-.685c-.744.028-1.49.006-2.236.006h-8.947c-1.183 0-1.02-.012-1.439.991-.684 1.635-1.344 3.281-2.014 4.922a1.492 1.492 0 0 0-.055.144.985.985 0 0 1-1.136.79c-1.181-.039-2.365-.012-3.547-.012-.591 0-1.183 0-1.774-.007a6.065 6.065 0 0 1-.643-.08Zm16.1-22.36a1.308 1.308 0 0 0-.455.7q-1.391 3.385-2.775 6.772c-.2.5-.412 1-.6 1.5a1.908 1.908 0 0 0-.044.469 17.2 17.2 0 0 0 2.566.088c.873.016 1.747 0 2.621-.007.839 0 1.68.047 2.524-.036.008-.123.039-.209.014-.271q-1.814-4.46-3.637-8.915a1.932 1.932 0 0 0-.211-.3Z"/><path data-name="Trazado 43" d="M266.142 24.127a2.527 2.527 0 0 1 .393.271c1.268 1.305 2.53 2.617 3.751 3.882a.737.737 0 0 1-.284.6 15.388 15.388 0 0 1-6.975 4.361 13.879 13.879 0 0 1-3.486.593c-.334.011-.668.037-1 .076a11.914 11.914 0 0 1-2.69-.127 15.081 15.081 0 0 1-6.508-2.23 15.389 15.389 0 0 1-3.34-2.826 16.749 16.749 0 0 1-1.92-2.693 14.811 14.811 0 0 1-1.82-5.367 18.356 18.356 0 0 1 .09-5.908 17.011 17.011 0 0 1 .81-2.809 15.048 15.048 0 0 1 3.409-5.268 14.75 14.75 0 0 1 3.778-2.764 16.247 16.247 0 0 1 6.412-1.808 19.22 19.22 0 0 1 6.348.551 14.682 14.682 0 0 1 6.194 3.31c.23.205.465.4.691.613a1.121 1.121 0 0 1 .139.237 2.685 2.685 0 0 1-.248.436c-.526.632-1.064 1.253-1.6 1.876s-1.068 1.25-1.61 1.868c-.218.247-.458.474-.654.675a1.041 1.041 0 0 1-.721-.381 14.279 14.279 0 0 0-2.4-1.672 9.459 9.459 0 0 0-7.231-.926 8.272 8.272 0 0 0-5.2 4.179 10.32 10.32 0 0 0-.217 9.783 8.22 8.22 0 0 0 6.438 4.852 9.824 9.824 0 0 0 7.862-2.163c.383-.3.754-.62 1.137-.923.134-.103.288-.19.452-.298Z"/><path data-name="Trazado 44" d="M117.837 52.254a1 1 0 0 0 .553-.527c.836-1.3 1.663-2.6 2.5-3.892.932-1.447 1.879-2.884 2.8-4.34a1.319 1.319 0 0 1 1.268-.7c.718.028 1.439 0 2.158.009a2.733 2.733 0 0 1 .46.038.391.391 0 0 1 .355.352 5.248 5.248 0 0 1 .036.614V62.46c0 .993-.173.91-.912.9h-2c-.478 0-.623-.152-.65-.654-.012-.231-.007-.462-.007-.693V50.22c0-.257 0-.514-.026-.769a.905.905 0 0 0-.134-.271c-.333.113-.448.389-.6.615-.748 1.107-1.485 2.221-2.23 3.33q-1.5 2.239-3.016 4.474c-.141.209-.3.405-.484.651a2.053 2.053 0 0 1-.366-.3 66.497 66.497 0 0 1-1.094-1.585q-1.353-2.013-2.7-4.032c-.57-.854-1.135-1.712-1.707-2.564-.138-.207-.295-.4-.5-.674a1.971 1.971 0 0 0-.1.357c-.012.282-.011.565-.011.847v11.87c0 .257 0 .514-.02.77-.027.306-.149.418-.441.421-.821.009-1.642.018-2.463.012a3.491 3.491 0 0 1-.556-.089 1.354 1.354 0 0 1-.149-.87 618.15 618.15 0 0 1-.006-4.085V44.069c0-.282 0-.566.031-.846a.4.4 0 0 1 .4-.4 2.582 2.582 0 0 1 .384-.024c.8 0 1.594.011 2.39 0a1.077 1.077 0 0 1 1.02.55c.838 1.324 1.7 2.635 2.548 3.95q1.508 2.329 3.021 4.655a3.124 3.124 0 0 0 .248.3Z"/><path data-name="Trazado 45" d="M129.485 17.979v14.11c0 .282-.008.565-.034.846a.427.427 0 0 1-.4.406 3.869 3.869 0 0 1-.537.035h-4.937c-.8-.019-.877-.084-.878-.9q-.009-5.782-.005-11.565V3.948c0-.282 0-.566.022-.847s.148-.409.444-.439a14.382 14.382 0 0 1 1.46-.1c1.105 0 2.209.044 3.314.064.256 0 .513-.009.77-.023.65-.037.75.052.773.725.008.231 0 .462 0 .693q.008 6.98.008 13.958Z"/><path data-name="Trazado 46" d="M295.507 56.538a.828.828 0 0 0 .122-.261c.023-.256.025-.513.025-.77V44.098c0-.282 0-.565.029-.846a.437.437 0 0 1 .394-.412 1.846 1.846 0 0 1 .306-.03h2.082a1.905 1.905 0 0 1 .307.025.419.419 0 0 1 .407.392 4.857 4.857 0 0 1 .03.615v18.5c0 .966-.005.977-.977 1.039-.487.031-.977.014-1.465.02a1.065 1.065 0 0 1-.921-.461c-.48-.635-.994-1.245-1.481-1.875q-2.87-3.722-5.734-7.449-1.53-1.981-3.091-3.941c-.133-.168-.215-.424-.54-.432a.9.9 0 0 0-.1.26c-.018.256-.018.513-.018.77v11.949c0 1.218-.015 1.12-1.064 1.138-.769.013-1.534-.005-2.328-.015a2.653 2.653 0 0 1-.145-.454 5.052 5.052 0 0 1-.014-.616v-18.27a7.586 7.586 0 0 1 .027-.769.411.411 0 0 1 .4-.4 1.291 1.291 0 0 1 .229-.023h2.16a1.09 1.09 0 0 1 .915.475q2.485 3.242 4.99 6.468 1.226 1.585 2.46 3.163l2.509 3.223c.123.157.221.35.486.396Z"/><path data-name="Trazado 47" d="M173.58 63.149c-.164.1-.206.148-.25.15-1.051.037-2.1.066-3.154.1a1.188 1.188 0 0 1-1.086-.591c-1.307-1.875-2.637-3.733-3.959-5.6-.134-.188-.276-.371-.4-.564a1 1 0 0 0-.917-.459c-1.053.008-2.107 0-3.161 0-.051 0-.1 0-.154.007-.411.041-.521.152-.554.588-.016.2-.011.411-.011.616v4.855c0 .231 0 .463-.023.692-.026.259-.139.378-.389.4a16.938 16.938 0 0 1-2.694-.013c-.308-.027-.421-.135-.45-.423a6.028 6.028 0 0 1-.02-.616v-18.34c0-.206 0-.412.016-.616.034-.366.158-.482.539-.52a4.416 4.416 0 0 1 .462-.015c2.673 0 5.345-.007 8.018 0a11.541 11.541 0 0 1 2.673.323 6.366 6.366 0 0 1 4.024 2.64 5.088 5.088 0 0 1 .679 1.373 6.615 6.615 0 0 1-1.211 6.514 6.8 6.8 0 0 1-2.481 1.648c-.228.1-.5.132-.692.37a23.455 23.455 0 0 0 1.68 2.477c.576.85 1.188 1.676 1.781 2.515.57.821 1.18 1.611 1.734 2.489Zm-13.649-13.594v1.772c0 .308-.007.617.007.924.026.567.136.675.68.708.077.005.154 0 .231 0 1.542 0 3.083-.01 4.624 0a4.751 4.751 0 0 0 2.151-.52 3.06 3.06 0 0 0 1.675-2.093 3.473 3.473 0 0 0 .006-1.6 2.878 2.878 0 0 0-1.724-2.123 5.414 5.414 0 0 0-2.248-.458c-1.489-.018-2.979-.006-4.469-.005-.129 0-.258 0-.385.012-.377.038-.494.151-.532.527-.017.178-.015.359-.015.538-.002.778-.001 1.548-.001 2.318Z"/><path data-name="Trazado 48" d="M239.94 54.883a1.346 1.346 0 0 0-.759-.115h-7.862c-.868 0-.93.062-.933.91-.006 2.183 0 4.366 0 6.549a7.254 7.254 0 0 1-.039.767.364.364 0 0 1-.3.31.977.977 0 0 1-.228.033c-.872.008-1.744.016-2.616.015a2.042 2.042 0 0 1-.383-.077 2.525 2.525 0 0 1-.1-.383c-.017-.23-.014-.462-.014-.693V44.015c0-.256 0-.514.026-.769a.418.418 0 0 1 .393-.407 1.736 1.736 0 0 1 .306-.029c.745 0 1.49-.014 2.235 0 .6.012.694.126.717.744.009.256 0 .513 0 .77v5.779c0 .231-.006.463.012.693.031.409.154.525.581.564.178.016.359.013.539.013h7.477a5.947 5.947 0 0 0 .692-.031.4.4 0 0 0 .389-.405c.026-.254.027-.512.028-.769v-6.164a6.65 6.65 0 0 1 .021-.692c.032-.319.166-.444.491-.488a2.4 2.4 0 0 1 .308-.018h2a2.574 2.574 0 0 1 .383.03.38.38 0 0 1 .35.355c.022.281.03.563.03.845v18.261c0 .154 0 .309-.009.462-.031.388-.125.516-.5.558-.458.051-.922.073-1.383.078-.41.005-.82-.028-1.23-.05-.3-.015-.418-.12-.446-.418-.022-.23-.019-.462-.019-.693v-6.4a1.391 1.391 0 0 0-.157-.951Z"/><path data-name="Trazado 49" d="M131.661 63.23a.875.875 0 0 1 .13-.652q.467-1.1.945-2.192 1.911-4.377 3.825-8.752 1.109-2.541 2.211-5.086.662-1.518 1.331-3.033c.041-.094.092-.183.132-.278a.706.706 0 0 1 .716-.478h.154c.694 0 1.388.013 2.081-.005a.891.891 0 0 1 .949.607c.739 1.722 1.51 3.431 2.261 5.148q1.543 3.528 3.077 7.06 1.383 3.178 2.759 6.36c.092.212.2.416.285.632.07.186.112.384.166.578-.1.063-.156.134-.22.138-.794.049-1.589.088-2.383.128-.051 0-.1-.006-.154-.006a1.2 1.2 0 0 1-1.281-.873c-.363-.987-.8-1.946-1.209-2.917-.049-.119-.092-.24-.143-.358-.372-.868-.373-.873-1.3-.874h-7.708c-.967 0-.976.008-1.366.911-.469 1.085-.93 2.172-1.4 3.257a8.02 8.02 0 0 1-.227.489.568.568 0 0 1-.423.3 1.558 1.558 0 0 1-.3.028q-1.383-.024-2.766-.057c-.049 0-.096-.046-.142-.075Zm13.711-8.161a1.093 1.093 0 0 0-.15-.754c-.295-.683-.594-1.364-.888-2.047l-1.887-4.384c-.078-.18-.116-.4-.434-.489-.018.035-.056.1-.09.173-.1.207-.208.412-.3.624q-.417.951-.823 1.907c-.635 1.487-1.271 2.973-1.9 4.462a1.9 1.9 0 0 0-.073.431c.1.054.167.12.234.12q2.924.019 5.848.023a3.084 3.084 0 0 0 .463-.066Z"/><path data-name="Trazado 50" d="M268.452 63.204a2.9 2.9 0 0 1-.527.134c-.77.027-1.54.04-2.31.054-.1 0-.2-.028-.306-.032a.9.9 0 0 1-.849-.657c-.471-1.166-.971-2.322-1.457-3.482-.35-.838-.349-.846-1.234-.847h-7.863c-.866 0-.9.036-1.244.853-.5 1.182-1.023 2.356-1.51 3.543a.8.8 0 0 1-.862.6c-.229-.015-.461.027-.692.026-.513 0-1.026-.01-1.538-.031-.225-.009-.449-.058-.649-.085a.626.626 0 0 1 .056-.622q.744-1.735 1.5-3.463 1.555-3.567 3.112-7.131 1.633-3.743 3.272-7.482c.2-.447.4-.892.59-1.339a.767.767 0 0 1 .789-.494q1.155.015 2.312 0a.761.761 0 0 1 .767.523c.7 1.6 1.412 3.194 2.112 4.793q1.359 3.1 2.707 6.215l2.8 6.426c.277.635.56 1.268.833 1.9.071.173.111.345.191.598Zm-13.9-8.151a59.541 59.541 0 0 0 6.109.082 3.5 3.5 0 0 0 .481-.1 3.062 3.062 0 0 0-.12-.54q-1.275-2.971-2.563-5.935c-.123-.283-.237-.57-.377-.843-.051-.1-.167-.165-.3-.29a5.034 5.034 0 0 0-.339.559q-1.24 2.859-2.467 5.724c-.132.306-.276.608-.388.922a1.552 1.552 0 0 0-.039.421Z"/><path data-name="Trazado 51" d="M101.018 47.808c-.441-.268-.81-.5-1.184-.717a10.923 10.923 0 0 0-2.325-1.007 7.331 7.331 0 0 0-2.747-.227 3.264 3.264 0 0 0-1.516.522 2.2 2.2 0 0 0-.086 3.695 9.1 9.1 0 0 0 2.343.96c.889.256 1.793.456 2.684.7a10.654 10.654 0 0 1 3.42 1.558 4.5 4.5 0 0 1 1.882 2.9 6.8 6.8 0 0 1 .051 2.376 5.373 5.373 0 0 1-3.141 4.2 8.8 8.8 0 0 1-3.646.849 13.565 13.565 0 0 1-3.966-.447 12.475 12.475 0 0 1-4.428-2.261 2.317 2.317 0 0 1-.28-.264.416.416 0 0 1-.046-.621c.212-.289.454-.556.684-.832.264-.315.542-.619.789-.947.32-.425.547-.359.9-.081a11.765 11.765 0 0 0 2.068 1.333 8.6 8.6 0 0 0 4.638.855 4.206 4.206 0 0 0 1.745-.564 2.266 2.266 0 0 0 .026-3.89 11.2 11.2 0 0 0-2.146-.84c-1.065-.293-2.138-.554-3.2-.848a11.084 11.084 0 0 1-2.41-1.013 4.632 4.632 0 0 1-2.406-3.143 5.755 5.755 0 0 1 3.6-6.92 7.792 7.792 0 0 1 2.706-.544 12.222 12.222 0 0 1 4.555.612 10.636 10.636 0 0 1 2.735 1.4 4.837 4.837 0 0 1 .419.338.363.363 0 0 1 .062.489c-.091.155-.183.31-.286.457-.354.5-.708 1.009-1.073 1.5a4.549 4.549 0 0 1-.421.422Z"/><path data-name="Trazado 52" d="M220.569 57.814a10.625 10.625 0 0 1 2.238 2.272 4.52 4.52 0 0 1-.353.455 10.121 10.121 0 0 1-6.379 3.085 11.567 11.567 0 0 1-3.9-.208 10.114 10.114 0 0 1-4.932-2.71 10.42 10.42 0 0 1-2.83-5.374 10.77 10.77 0 0 1 .886-7.056 9.835 9.835 0 0 1 5.9-5.2 11.883 11.883 0 0 1 9.049.691 10.363 10.363 0 0 1 2.184 1.567c.286.259.315.458.079.731-.587.679-1.194 1.342-1.8 2.008a1.172 1.172 0 0 1-.22.141 1.8 1.8 0 0 1-.752-.474 8.645 8.645 0 0 0-3.11-1.64 6.635 6.635 0 0 0-4.306.214 6.21 6.21 0 0 0-3.6 3.5 7.684 7.684 0 0 0 .541 7.517 6.3 6.3 0 0 0 5.194 3.014 7.428 7.428 0 0 0 5.132-1.752Z"/><path data-name="Trazado 53" d="M62.092 42.719c-.609-.4-5.737-5.436-7.525-7.373a5.18 5.18 0 0 1-.335-.456c.154-.2.28-.388.432-.554 1.739-1.9 6.735-6.792 7.386-7.224a3.807 3.807 0 0 1 .364.218 2.621 2.621 0 0 1 .278.266l6.537 6.53c.776.773.707.828.009 1.536-2.055 2.083-4.13 4.145-6.2 6.21-.292.287-.609.546-.946.847Z"/><path data-name="Trazado 54" d="M27.082 34.939c.486-.684 7.2-7.392 7.792-7.81.3.026.484.266.677.459q3.378 3.372 6.744 6.759c.159.16.3.341.44.506a1.708 1.708 0 0 1-.58.755q-2.28 2.295-4.574 4.577-1.008 1.009-2.016 2.015a1.594 1.594 0 0 1-.649.5c-.519-.325-3.934-3.67-7.379-7.225-.156-.163-.292-.344-.455-.536Z"/><path data-name="Trazado 55" d="M7.807 42.737a2.945 2.945 0 0 1-.37-.259q-3.651-3.645-7.294-7.3a1.043 1.043 0 0 1-.14-.231c.023-.3.23-.43.389-.59q3.182-3.189 6.37-6.372a4.133 4.133 0 0 1 .956-.861c.347.014.5.275.7.467q1.859 1.844 3.707 3.7 1.5 1.5 2.993 3a1.257 1.257 0 0 1 .469.653 3.19 3.19 0 0 1-.293.39q-3.48 3.489-6.969 6.971c-.148.141-.318.26-.518.432Z"/><path data-name="Trazado 56" d="M182.587 63.31a1.534 1.534 0 0 1-.157-.915q-.012-5.394-.016-10.789c0-1.439 0-2.878-.009-4.316a1.289 1.289 0 0 0-.159-.888 1.439 1.439 0 0 0-.827-.119h-4.4c-1.055 0-1.086-.035-1.089-1.076 0-.617-.007-1.234.015-1.85.014-.373.149-.492.527-.53a6.018 6.018 0 0 1 .616-.018h14.265a6.41 6.41 0 0 1 .843.056.4.4 0 0 1 .346.364 1.377 1.377 0 0 1 .025.23c0 .745.013 1.49-.005 2.234-.011.432-.137.545-.557.578-.205.016-.411.011-.617.011h-4.318c-.913 0-.962.049-.963.956q-.006 6.319 0 12.64c0 .847-.005 1.695-.01 2.543a4.455 4.455 0 0 1-.017.462.462.462 0 0 1-.492.483 7.424 7.424 0 0 1-.846.031c-.714-.02-1.43-.057-2.155-.087Z"/><path data-name="Trazado 57" d="M272.435 63.315a1.025 1.025 0 0 1-.2-.793 89.043 89.043 0 0 1-.016-2v-16.1c0-.385.007-.771.038-1.155.023-.283.159-.406.447-.437a5.491 5.491 0 0 1 .615-.021c.642 0 1.285-.011 1.927.009.505.016.615.143.649.658.01.153.007.308.007.462v18.334c0 1.04-.019 1.066-1.078 1.114a18.48 18.48 0 0 1-2.389-.071Z"/></g></svg>