<svg xmlns="http://www.w3.org/2000/svg" width="113.153" height="113.153"><g data-name="Grupo 195"><g data-name="Grupo 193" transform="translate(-331.851 -1203.678)"><rect data-name="Rectángulo 88" width="113.153" height="113.153" rx="22.639" transform="translate(331.851 1203.678)" fill="#fff"/></g><g data-name="Grupo 194" fill="#804fe4"><path data-name="Trazado 134" d="m63.304 52.641 21.391-13.429v-.083a10.67 10.67 0 0 0-10.67-10.67h-34.9a10.671 10.671 0 0 0-10.671 10.67v.148l21.381 13.375a12.753 12.753 0 0 0 13.469-.011Z"/><path data-name="Trazado 135" d="M65.72 56.489a17.322 17.322 0 0 1-18.291.014L28.458 44.635v29.39a10.671 10.671 0 0 0 10.671 10.67h34.9a10.67 10.67 0 0 0 10.67-10.67v-29.45Z" opacity=".52"/></g></g></svg>