<svg xmlns="http://www.w3.org/2000/svg" width="220.936" height="95.822"><g data-name="Grupo 94"><g data-name="Grupo 90" fill="#5e5e5e"><path data-name="Trazado 58" d="M7.842 91.777h23.216v4.045h-24.4c-4.761 0-6.659-2.427-6.659-6.286v-15.56h6.037v15.56c.001 1.432.81 2.241 1.806 2.241Z"/><path data-name="Trazado 59" d="M60.811 95.787v-9.3H41.828v9.305h-6.1V80.264c0-3.548 2.178-6.287 6.535-6.287h18.08c4.389 0 6.536 2.739 6.536 6.287v15.523ZM43.664 77.893c-1.245 0-1.836.965-1.836 2.366v2.333h18.983v-2.333c0-1.4-.591-2.366-1.9-2.366Z"/><path data-name="Trazado 60" d="M102.888 80.294V95.76h-6.41V80.294c0-1.121-.56-2.21-1.836-2.21H77.993V95.76h-6.44V74.038h24.709c4.262 0 6.626 2.863 6.626 6.256Z"/><path data-name="Trazado 61" d="M132.082 73.976c4.232 0 6.1 2.832 6.1 6.442v8.9c0 3.671-1.867 6.472-6.1 6.472h-24.523V73.975Zm.342 15.343v-8.9c0-1.432-.56-2.272-1.929-2.272h-17.178v13.506h17.178c1.369-.001 1.929-.903 1.929-2.334Z"/><path data-name="Trazado 62" d="M149.107 95.822h-6.254V73.976h6.254Z"/><path data-name="Trazado 63" d="M178.859 95.787v-9.3h-18.983v9.305h-6.1V80.264c0-3.548 2.178-6.287 6.535-6.287h18.08c4.388 0 6.536 2.739 6.536 6.287v15.523Zm-17.147-17.894c-1.245 0-1.836.965-1.836 2.366v2.333h18.983v-2.333c0-1.4-.591-2.366-1.9-2.366Z"/><path data-name="Trazado 64" d="M220.936 80.294V95.76h-6.41V80.294c0-1.121-.56-2.21-1.837-2.21H196.04V95.76h-6.441V74.038h24.709c4.263 0 6.628 2.863 6.628 6.256Z"/></g><g data-name="Grupo 93"><g data-name="Grupo 91"><path data-name="Trazado 65" d="M82.115 41.732V11.027h-14.07v41.111h57.013c8.028 0 12.492-4.22 13.96-10.406h-56.9Z" fill="#5e5e5e"/></g><g data-name="Grupo 92"><path data-name="Trazado 66" d="M139.56 14.439v26.673h.814a13.257 13.257 0 0 0 13.256-13.257V13.064A13.064 13.064 0 0 0 140.566 0H96.617c-8.028 0-12.492 4.22-13.96 10.406h52.87a4.034 4.034 0 0 1 4.033 4.033Z" fill="#5e5e5e"/></g></g></g></svg>