<svg xmlns="http://www.w3.org/2000/svg" width="537.297" height="53.128"><g data-name="Grupo 248" fill="#fff"><path data-name="Trazado 152" d="M19.072 43.29h56.455v9.838H16.196c-11.58 0-16.2-5.9-16.2-15.287V0h14.682v37.841c.004 3.481 1.972 5.449 4.394 5.449Z"/><path data-name="Trazado 153" d="M147.888 53.053V30.424h-46.161v22.629H86.89v-37.77c0-8.627 5.3-15.288 15.892-15.288h43.971c10.671 0 15.893 6.661 15.893 15.288v37.765Zm-41.7-43.517c-3.028 0-4.465 2.346-4.465 5.752v5.676h46.165v-5.681c0-3.406-1.438-5.752-4.616-5.752Z"/><path data-name="Trazado 154" d="M250.215 15.364v37.613h-15.588V15.364c0-2.725-1.363-5.374-4.465-5.374h-40.49v42.987h-15.667V.151h60.091c10.368 0 16.119 6.963 16.119 15.213Z"/><path data-name="Trazado 155" d="M321.211 0c10.293 0 14.834 6.887 14.834 15.666v21.645c0 8.93-4.541 15.742-14.834 15.742h-59.636V0Zm.832 37.311V15.666c0-3.481-1.361-5.525-4.691-5.525h-41.776v32.842h41.776c3.33 0 4.691-2.191 4.691-5.672Z"/><path data-name="Trazado 156" d="M362.616 53.128h-15.212V0h15.212Z"/><path data-name="Trazado 157" d="M434.969 53.053V30.424h-46.165v22.629H373.97v-37.77c0-8.627 5.3-15.288 15.894-15.288h43.97c10.671 0 15.893 6.661 15.893 15.288v37.765Zm-41.7-43.517c-3.027 0-4.465 2.346-4.465 5.752v5.676h46.165v-5.681c0-3.406-1.437-5.752-4.616-5.752Z"/><path data-name="Trazado 158" d="M537.297 15.364v37.613h-15.591V15.364c0-2.725-1.362-5.374-4.465-5.374h-40.489v42.987h-15.666V.151h60.091c10.368 0 16.12 6.963 16.12 15.213Z"/></g></svg>