<svg xmlns="http://www.w3.org/2000/svg" width="97.3" height="21.791"><g data-name="Grupo 266" fill="#fff"><path data-name="Trazado 123" d="M0 .048c1.26 0 2.4-.059 3.518.04.3.027.68.5.8.843 1.2 3.352 2.362 6.721 3.531 10.085.627 1.8 1.251 3.605 1.978 5.7.512-1.411.947-2.575 1.357-3.749 1.366-3.919 2.747-7.833 4.064-11.768A1.426 1.426 0 0 1 16.987.02a24.108 24.108 0 0 0 2.633.019 7.352 7.352 0 0 1-.184.916l-6.947 19.868c-.2.571-.471.844-1.108.78a17.662 17.662 0 0 0-1.768-.013c-2.132 0-2.115 0-2.8-1.963Q3.603 10.419.371 1.218C.259.879.157.535 0 .048Z"/><path data-name="Trazado 124" d="m45.03 11.104-1.5-2.163a9.062 9.062 0 0 1 4.591-1.972 8.328 8.328 0 0 1 5.388.642 4.239 4.239 0 0 1 2.416 3.822c.1 3.3.03 6.611.03 9.992H52.24l-.135-1.47a5.281 5.281 0 0 1-5.434 1.559 4.7 4.7 0 0 1-3.53-6.189c.809-2.217 2.79-2.672 4.821-2.858 1.272-.116 2.564-.021 3.838-.021.068-1.543-.488-2.393-1.813-2.3a39.71 39.71 0 0 0-4.957.958Zm6.773 4.116a35.644 35.644 0 0 0-3.827.36 1.511 1.511 0 0 0-.9 1.149 1.774 1.774 0 0 0 .8 1.373c1.965.883 4.374-.306 3.927-2.882Z"/><path data-name="Trazado 125" d="M81.018 21.436h-4.047v-1.427c0-2.318.027-4.636-.009-6.953-.03-1.955-.856-2.963-2.356-3.009a2.866 2.866 0 0 0-3.008 2.98c-.075 2.389-.035 4.782-.045 7.174v1.217h-4.036V7.185h3.965l.171 1.244c.42-.289.736-.523 1.068-.732a5.3 5.3 0 0 1 8.223 3.911 13.45 13.45 0 0 1 .074 1.542c.003 2.717 0 5.439 0 8.286Z"/><path data-name="Trazado 126" d="M84.804 17.496c.947-.168 1.768-.356 2.6-.433a1.065 1.065 0 0 1 .72.464 3.552 3.552 0 0 0 4.442.987 1.622 1.622 0 0 0 .733-1.085c.019-.3-.413-.772-.751-.913-.843-.35-1.76-.518-2.623-.826a12.389 12.389 0 0 1-3.035-1.248 4.011 4.011 0 0 1 .543-6.932c3.167-1.687 7.194-.843 8.858 1.865.187.3.323.64.571 1.138a23.952 23.952 0 0 1-2.525.612c-.265.036-.629-.272-.871-.5a3.075 3.075 0 0 0-3.126-.91 1.935 1.935 0 0 0-1.168 1.209c-.07.364.477 1.086.907 1.259 1.222.493 2.533.759 3.791 1.168a6.7 6.7 0 0 1 1.693.781 3.881 3.881 0 0 1-.683 6.827 9.574 9.574 0 0 1-6.492.494c-1.976-.492-3.009-1.934-3.584-3.957Z"/><path data-name="Trazado 127" d="M21.904 7.137h3.867v14.274h-3.869Z"/><path data-name="Trazado 128" d="M59.736 7.136h3.883v14.275h-3.883Z"/><path data-name="Trazado 129" d="M34.271 15.234c-1.25 0-2.5-.02-3.75.008-.715.016-.974-.279-.958-.985.068-3.074-.434-2.6 2.483-2.627 1.985-.021 3.971.02 5.955-.015.847-.015 1.159.269 1.132 1.148-.091 2.91.352 2.429-2.435 2.47-.809.012-1.618.002-2.427.001Z"/><path data-name="Trazado 130" d="M61.633 1.194a2.357 2.357 0 1 1-2.328 2.414 2.306 2.306 0 0 1 2.328-2.414Z"/><path data-name="Trazado 131" d="M23.833 5.886a2.313 2.313 0 0 1-2.367-2.267 2.4 2.4 0 0 1 2.467-2.425 2.345 2.345 0 0 1 2.283 2.36 2.265 2.265 0 0 1-2.383 2.332Z"/><path data-name="Trazado 132" d="M82.099 6.698a2.534 2.534 0 0 0 1.648-1.935c-.446-.067-.72-.1-.992-.151-1.076-.194-1.663-.829-1.588-1.762a1.684 1.684 0 0 1 1.691-1.572 1.767 1.767 0 0 1 2.037 1.283 3.6 3.6 0 0 1-2.507 4.362Z"/></g></svg>