<svg xmlns="http://www.w3.org/2000/svg" width="96.796" height="168.892"><g data-name="Grupo 95" fill="#5e5e5e"><path data-name="Trazado 67" d="M73.616 51.475a36.239 36.239 0 0 1 4.581 1.622c.928.479 2.415 1.547 2.308 2.087-.756 3.825 2.747 5.892 3.408 9.026.31 1.474-.07 3.081 0 4.621.191 4.172-.292 8.561.855 12.462a31.59 31.59 0 0 1-.691 21 14.09 14.09 0 0 1-2.758 3.7c-1.779 2.064-4.09 3.807-5.387 6.126-7.025 12.564-6.941 12.611-17.075 20.824 2.02-.508 4.195-.694 6.032-1.581 7.384-3.565 14.67-1.625 18.724 5.5 2.541 4.463 4.78 9.107 6.967 13.759 1.9 4.031.678 7.454-3.161 9.689-4.679 2.725-9.381 4.672-14.41-.3-1.042 7.108-6.262 7.722-11.372 7.96-8.249.383-7.832-6.453-9.472-11.7-.155 2.73-.222 5.468-.484 8.188-.375 3.884-1.442 4.587-6.265 4.433-3.465-.111-4.5-1.145-4.6-4.732a65.131 65.131 0 0 0-.311-6.767c-2.554 3.85-1.846 10.434-8.489 10.535-4.776.073-9.847.029-12.492-5.7-1.8 3.453-4.307 3.331-7.207 2.184-2.81-1.111-5.717-1.973-8.57-2.979-3.624-1.277-4.421-2.718-3.24-6.366 2.1-6.487 4.241-12.964 6.514-19.392 2.061-5.828 6.018-7.221 11.906-5.271 3.794 1.256 7.926 1.488 12.068 1.716-1.887-1.119-3.829-2.155-5.653-3.369a37.763 37.763 0 0 1-15.463-20.463 6.371 6.371 0 0 0-1.541-2.182c-1.678-1.794-4.2-3.232-5-5.337-2.6-6.858-3.026-13.919.018-20.9a19.611 19.611 0 0 0 .811-3.9c.669-3.276.782-6.808 2.135-9.773 2.987-6.545 3.167-13.35 3.271-20.292.148-9.877 1.15-19.65 4.658-29a31.268 31.268 0 0 1 9.609-13.9c4.3-3.436 9.334-3.9 13.384-1.356 5.508 3.463 8.387 9.046 6.849 14.385a91.781 91.781 0 0 1-4.362 10.857c-1.866 4.308-3.853 8.562-5.772 12.847-.177.4-.243.841-.19.649 3.174-.068 6.458-.106 9.737-.244a2.847 2.847 0 0 0 1.443-.8c2.78-2.327 5.859-3.078 8.7-1.961 5.56-7.494 10.716-14.922 16.422-21.9 2.256-2.758 5.554-4.831 8.7-6.646a10.156 10.156 0 0 1 11.958 1.015c4.054 3.2 6.754 7.211 5.925 12.716-.826 5.478-4.158 9.582-7.83 13.391-4.19 4.346-8.558 8.519-12.825 12.79-.76.745-1.421 1.628-2.363 2.729Zm-44.339-4.666c1.686-4.233 3.2-8.277 4.9-12.239 2.513-5.854 5.364-11.57 7.688-17.495 2.051-5.228 0-10.118-5.1-13.561-3.827-2.585-8.657-2.271-12.5 1.659a40.435 40.435 0 0 0-7.169 9.974c-4.026 8.043-5.036 16.88-5.446 25.752-.442 9.559-.068 19.178-4.331 28.212-1.146 2.426-1 5.464-1.439 8.221a8.713 8.713 0 0 1-.434 2.613c-3.267 6.19-2.618 12.575-.908 18.949.859 3.2 2.228 6.2 6.6 5.058.419 5.623 2.773 10.175 5.918 14.329 7.8 10.3 18.083 15.532 31.1 14.369s20.955-8.87 25.725-20.595c1.042-2.563 2.979-4.8 4.695-7.038 1.266-1.652 3.789-2.894 4.1-4.618a65.959 65.959 0 0 0 1.159-14.862c-.257-5.278-1.548-10.5-2.372-15.757-.1-.645-.332-1.793-.129-1.885 3.186-1.445.738-3.235.107-4.523a53.887 53.887 0 0 0-3.869-6.022l1.862-1-.789-1.184-8.764-2.869c5.2-5.205 10.186-9.846 14.745-14.874a68.162 68.162 0 0 0 9.272-12.17c2.614-4.683.811-9.684-3.631-13.436-3.635-3.072-7.907-3.424-12.4-.517-2.6 1.681-5.325 3.6-7.091 6.056-5.791 8.063-11.176 16.419-16.7 24.674-.707 1.057-1.309 2.184-1.994 3.338-2.925-2.513-.251-4.208.536-6.251-5.574-1.379-7.946 4.283-12.764 5.223l1.285-2.949-.753-.959Zm21.35 102.647.939-.265a10.64 10.64 0 0 1 1.575 2.5c.866 2.983 1.645 6 2.271 9.04.5 2.431 1.206 4.58 3.944 5.237 6.883 1.652 11.258-1.684 11.385-8.639 0-.13.272-.255.539-.491a16.493 16.493 0 0 1 2.428 1.613c4.217 3.972 8.477 2.985 12.818.26 3.034-1.9 3.86-4.218 2.32-7.4-2.194-4.527-4.123-9.253-6.886-13.415-4.053-6.1-7.815-8.12-13.686-5.632-1.6.678-3.024 2.238-4.619 2.379-3.911.348-7.875.128-11.817.092-4.011-.036-8.026-.033-12.032-.216a131.32 131.32 0 0 1-14.027-1.038c-2.555-.4-4.889-1.436-6.462.412-1.273-.942-2.206-2.041-3.371-2.416-3-.962-5.934 1.167-7.316 5.159-2.047 5.914-4 11.859-6.011 17.786-1.347 3.978-.886 4.966 3.276 5.656 1.373.228 2.885-.38 4.406-.617-.1 2.824 2.426 3.58 4.706 3.59 1.125 0 2.482-1.747 3.332-2.98a53.548 53.548 0 0 0 3.027-5.645 11.941 11.941 0 0 1 .179 4.548c-.349 3.9 1.1 5.856 4.974 6.614 1.205.236 2.436.346 3.66.474 3.364.351 5.542-.888 6.446-4.366.9-3.456 2.08-6.841 3.228-10.226a10.279 10.279 0 0 1 1.361-2.121l1.444.318c0 4.777.063 9.555-.029 14.329-.041 2.158.829 2.883 2.948 3.077 3.2.292 4.415-.881 4.43-4.078.021-4.512.392-9.025.62-13.539Z"/><path data-name="Trazado 68" d="m67.643 114.097 3.286-.643c-5.6 8.964-12.881 14.4-22.929 16.4-14.711 2.916-32.191-11.268-34.006-25.373a15.1 15.1 0 0 1 1.266-7.728 7.878 7.878 0 0 0 .23-6.956 21.081 21.081 0 0 1-.581-15.41c2.228-6.476 7.183-9.265 13.7-7.181a62.113 62.113 0 0 1 11.2 5.182 7.9 7.9 0 0 0 8.785-.152 64.513 64.513 0 0 1 10.389-5.383c6.677-2.519 12.023.337 14.159 7.121a22.134 22.134 0 0 1-.266 13.834c-.634 1.97-.35 4.325-.106 6.462.226 1.976 1.078 3.873 1.439 5.843.857 4.688-.231 8.649-4.523 11.343a19.689 19.689 0 0 0-2.377 2.065Zm-40.877-4.648c1.54 1.875 3.159 3.861 4.794 5.832 4.58 5.52 10.841 7.364 17.72 5.23a10.816 10.816 0 0 0 7.834-9.133 4.858 4.858 0 0 1 3.514-4.293c1.645-.617 3.222-1.418 5.365-2.378-1.013-.405-1.239-.59-1.41-.548-.857.211-1.707.46-2.547.735-9.675 3.167-19.484 4.877-29.645 2.724-2.394-.508-4.913-.816-5.266-4.091-.065-.606-.971-1.122-1.029-1.184l-3.634 8.073Zm21.169-30.416-1.191.314c.947 7.754 1.071 15.738 7.484 21.97 3.74-4.776 9.046-5.787 14.23-4.573.25-3.005.68-5.753.65-8.5-.031-2.83-.509-5.655-.873-9.294a66.189 66.189 0 0 0-7.874 2.435c-2.008.89-3.653 2.563-5.587 3.665-3.53 2.012-5.447 1.084-6.206-2.817-.208-1.064-.422-2.132-.633-3.2Zm-5.3-.661-1.058.082c-1.174 7.916-2.338 8.38-9.24 4.274a41.888 41.888 0 0 0-7.655-3.236c-1.711-.6-3.31.015-3.44 2.015-.229 3.523-.673 7.157-.079 10.58.944 5.44 4.816 7.739 10.961 7.389 5.3-.3 8.181-3.16 8.94-8.588.331-2.367 1.189-4.659 1.521-7.026a39.853 39.853 0 0 0 .046-5.49Zm5.866 19.511c-.9 1.948-1.3 4.613-2.784 5.536-1.662 1.036-4.306.5-6.449.637 2.433 3.019 6.389 3.742 8.865 1.529a5.525 5.525 0 0 0 .366-7.702Zm4.056 23.179c-6.235 2.1-12.407 2.616-18.579-.153a13.229 13.229 0 0 0 18.575.153ZM27.241 75.75c-2.355-2.485-4.5-2.546-6.724-1.223a5.737 5.737 0 0 0-2.459 6.578c2.389-4.903 4.18-6.047 9.179-5.355Zm25 6.319 9.46-5.95c-5.688.456-8.994 2.536-9.464 5.95Z"/><path data-name="Trazado 69" d="M76.047 83.934c1.1-.713 2.31-2.116 3.267-1.959a4.537 4.537 0 0 1 2.877 2.721 20.9 20.9 0 0 1-.951 15.3c-.441.982-1.905 1.506-2.9 2.241-.683-1.05-1.789-2.043-1.944-3.166-.207-1.511.321-3.122.608-5.246 1.448 1.067 2.291 1.687 3.4 2.5.694-2.786 1.743-5.29 1.857-7.836.19-4.244-2.011-5.524-5.734-3.792Z"/><path data-name="Trazado 70" d="M5.52 87.347c-.149.39-.511.845-.414 1.158.688 2.218 1.47 4.407 2.3 6.835l2.844-1.971a12.513 12.513 0 0 1 .963 2.7c.219 2.091.645 4.745-2.028 5.2-.934.159-2.818-2.147-3.382-3.658a29.023 29.023 0 0 1-1.367-7.506c-.079-.88.714-1.838 1.109-2.76Z"/><path data-name="Trazado 71" d="M5.545 87.348a18.383 18.383 0 0 1 .52-4.685 3.112 3.112 0 0 1 2.6-1.557c1 .174 1.825 1.357 2.494 2.356-4.014-1.215-5.058-.522-5.649 3.873a.074.074 0 0 0 .035.013Z"/><path data-name="Trazado 72" d="m19.651 138.885 4 1.37-7.786 21.345c-3.2 0-4.232-1.422-4.067-4.192.172-2.89.038-5.8.038-8.7l-.922-.231q-1.878 5.1-3.749 10.174c-3.166-.193-4.13-1.181-2.968-4.247 2.324-6.128 4.255-12.406 6.321-18.539 3.06.127 4.323 1.348 4.141 4.219-.2 3.107-.045 6.236-.045 9.355l.989.189Z"/><path data-name="Trazado 73" d="M77.499 135.698c1.131 1 2.5 1.71 3.117 2.834 2.413 4.388 4.6 8.9 6.851 13.377 1.26 2.5.37 4.3-1.922 5.553-1.17.641-2.386 1.2-3.6 1.755-2.567 1.169-4.507.535-5.848-2-2.186-4.136-4.481-8.215-6.626-12.372-1.571-3.046-1.055-4.7 1.934-6.321 1.84-.997 3.794-1.771 6.094-2.826Zm-.889 4.888c-2.462-.046-3.636 1.764-2.716 3.613 1.634 3.288 3.417 6.5 5.079 9.778.711 1.4 1.72 2.347 3.055 1.14a3.45 3.45 0 0 0 .881-3.053c-1.464-3.359-3.249-6.581-4.98-9.819a9.789 9.789 0 0 0-1.316-1.659Z"/><path data-name="Trazado 74" d="m55.558 158.351 4.461-.849c.323.3.581.424.624.6.345 1.416.5 3.153 2.6 2.542a2.707 2.707 0 0 0 1.588-1.932c.085-1.619.035-3.145-2.433-3.519-7.21-1.093-7.347-1.449-7.758-8.65a3.994 3.994 0 0 1 3.376-4.618c.757-.187 1.54-.269 2.311-.4 5.6-.939 7.189.5 6.988 6.779l-3.2.461c-.816-1.307-1.288-2.635-2.228-3.31-.425-.305-2.607.771-2.576 1.08a18.126 18.126 0 0 0 1.285 4.49c.077.2.834.14 1.274.215 6.9 1.177 6.975 1.173 7.379 8.19.068 1.174-.539 3.221-1.281 3.458-2.686.854-5.7 1.818-8.313 1.313-1.492-.286-2.444-3.343-4.097-5.85Z"/><path data-name="Trazado 75" d="m25.349 140.485 4.208.893c-.706 5.4-1.4 10.581-2.053 15.765-.184 1.456-1.048 3.185 1.518 3.585 2.508.39 2.387-1.506 2.609-2.933.805-5.166 1.5-10.349 2.282-15.888l4.1.584c-1.015 6.638-1.989 13.01-2.967 19.383a1.359 1.359 0 0 1-.13.307c-1.3 3.024-3.775 2.6-6.277 2.171-2.526-.431-5.776-.447-5.54-3.979.439-6.534 1.443-13.03 2.25-19.888Z"/><path data-name="Trazado 76" d="m52.899 142.7-.211 3.534-4.187.562v18.492h-4.183v-18.557c-2.009-.594-5.577.259-3.531-4.031Z"/><path data-name="Trazado 77" d="M32.359 110.053h22.147c-.7.717-1.252 1.788-2 1.955a36.849 36.849 0 0 1-19.079-.721c-.252-.076-.41-.455-1.068-1.234Z"/><path data-name="Trazado 78" d="M36.321 114.621c2.236.618 4.5 1.139 6.7 1.885 1.6.545 2.81 1.538 4.067-.9.518-1 3.064-.957 5.223-1.531-1.134 3.687-3.614 4.414-6.09 4.742-3.846.51-7.429-.21-10.187-3.123Z"/><path data-name="Trazado 79" d="m50.599 90.166 7.025-3.337 2.695 3.913c-.6 1.132-1.23 2.5-2.029 3.756-.607.955-1.3 2.282-2.194 2.508a3.519 3.519 0 0 1-3.086-1.154 34.251 34.251 0 0 1-2.411-5.686Z"/><path data-name="Trazado 80" d="m65.442 92.04-.433-9.061 1.233-.042.455 9.049Z"/><path data-name="Trazado 81" d="M32.263 91.296c-3.633-.118-1.614 3.166-1.854 5.435-3.283.068-5.723-1.067-6.549-4.1a22.584 22.584 0 0 1-.65-7.21c.073-1.182 1.321-2.292 2.037-3.435 1.732 1.153 3.888 1.985 5.077 3.551 1.16 1.523 1.331 3.802 1.939 5.759Z"/></g></svg>