<svg xmlns="http://www.w3.org/2000/svg" width="37.579" height="28.518"><path data-name="Trazado 430" d="m25.832 25.378 3.147-1.515c-.433-.678-.617-.736-1.22-.478a22.091 22.091 0 0 1-17.908.029c-.684-.287-.727-.279-1.293.4.515.27 1.012.547 1.523.794s1.015.454 1.554.693a1.413 1.413 0 0 1-.1.285c-.552.911-1.1 1.827-1.68 2.719a.594.594 0 0 1-.528.178 30.254 30.254 0 0 1-8.888-4.482.826.826 0 0 1-.3-.522A31.51 31.51 0 0 1 5.486 2.703a1.589 1.589 0 0 1 .633-.535A29.021 29.021 0 0 1 13.13.003a.609.609 0 0 1 .505.235c.317.537.58 1.107.883 1.706.319-.041.651-.093.984-.127a28.86 28.86 0 0 1 6.743.037c.83.108.828.121 1.182-.649.612-1.333.612-1.331 2.028-1.015a30.325 30.325 0 0 1 5.967 1.962 1.594 1.594 0 0 1 .639.531 31.73 31.73 0 0 1 5.265 13.713 32.475 32.475 0 0 1 .11 7.1.773.773 0 0 1-.287.49 30.7 30.7 0 0 1-8.932 4.512c-.131.042-.382.012-.44-.076-.659-.997-1.29-2.012-1.945-3.044Zm-4.188-9.671a7.91 7.91 0 0 0 .164 1.048 3.469 3.469 0 0 0 2.8 2.691 3.2 3.2 0 0 0 3.191-1.549 4.173 4.173 0 0 0-.311-4.837 3.158 3.158 0 0 0-4.886.02 4.1 4.1 0 0 0-.958 2.627Zm-5.687 0a8.713 8.713 0 0 0-.178-1.147 3.377 3.377 0 0 0-2.494-2.558 3.021 3.021 0 0 0-3.117 1.01 4.1 4.1 0 0 0 .033 5.389 3.1 3.1 0 0 0 4.671.038 4.075 4.075 0 0 0 1.085-2.729Z" fill="#fff"/></svg>