<svg xmlns="http://www.w3.org/2000/svg" width="131.731" height="132.022" viewBox="0 0 131.731 132.022">
  <g id="Grupo_292" data-name="Grupo 292" transform="translate(-876.753 -535.398)">
    <g id="Grupo_7" data-name="Grupo 7" transform="translate(-1653 -1914)">
      <ellipse id="Elipse_44" data-name="Elipse 44" cx="65.366" cy="65.511" rx="65.366" ry="65.511" transform="translate(2530.253 2449.898)" fill="none" stroke="#fff" stroke-miterlimit="10" stroke-width="1"/>
    </g>
    <g id="Grupo_13" data-name="Grupo 13" transform="translate(-1653 -1914)">
      <circle id="Elipse_52" data-name="Elipse 52" cx="26.106" cy="26.106" r="26.106" transform="translate(2570.325 2506.873)" fill="none" stroke="#fff" stroke-linecap="round" stroke-linejoin="round" stroke-width="1"/>
      <path id="Trazado_168" data-name="Trazado 168" d="M2622.347,2529.885s20.595-13.11,4.692-40.716c.6,0-4.8,14.7-13.2,6.6s-4.8-23.705-4.8-23.705-25.339-5.056-31.507,24.305c.3-.3-12,1.2-11.7-8.4,0,.9-20.019,28.021,4.694,41.917" fill="none" stroke="#fff" stroke-linecap="round" stroke-linejoin="round" stroke-width="1"/>
      <path id="Trazado_169" data-name="Trazado 169" d="M2596.431,2519.776s-4.645-1.2-6.3,6.3c-1.1,4.981-2.4,16.8,3.15,16.8s4.652-10.2,3.151-9.9" fill="none" stroke="#fff" stroke-linecap="round" stroke-linejoin="round" stroke-width="1"/>
      <ellipse id="Elipse_53" data-name="Elipse 53" cx="6.452" cy="11.553" rx="6.452" ry="11.553" transform="translate(2600.632 2519.776)" fill="none" stroke="#fff" stroke-linecap="round" stroke-linejoin="round" stroke-width="1"/>
      <line id="Línea_56" data-name="Línea 56" x2="8.402" transform="translate(2576.326 2526.978)" fill="none" stroke="#fff" stroke-linecap="round" stroke-linejoin="round" stroke-width="1"/>
      <line id="Línea_57" data-name="Línea 57" x2="8.402" transform="translate(2576.326 2535.08)" fill="none" stroke="#fff" stroke-linecap="round" stroke-linejoin="round" stroke-width="1"/>
      <line id="Línea_58" data-name="Línea 58" x2="11.488" transform="translate(2573.24 2531.329)" fill="none" stroke="#fff" stroke-linecap="round" stroke-linejoin="round" stroke-width="1"/>
    </g>
  </g>
</svg>
