<svg xmlns="http://www.w3.org/2000/svg" width="115.325" height="155.463"><g data-name="Grupo 191"><g data-name="Grupo 189" transform="translate(-5571.057 -6762.027)"><circle data-name="Elipse 9" cx="46.32" cy="46.32" r="46.32" transform="translate(5591.08 6823.35)" fill="none" stroke="#fff" stroke-miterlimit="10" stroke-width="3"/><g data-name="Grupo 188"><path data-name="Trazado 133" d="M5651.58 6857.537v-6.037c0-2.159-2.267-3.909-5.064-3.909h-19.664c-2.8 0-5.064 1.75-5.064 3.909v4.422a3.527 3.527 0 0 0 1.483 2.765l28.258 21.813a3.522 3.522 0 0 1 1.483 2.764c0 2.159-2.267 3.909-5.064 3.909h-19.091c-2.8 0-5.064-1.75-5.064-3.909v-4.936" fill="none" stroke="#fff" stroke-miterlimit="10" stroke-width="3"/><path data-name="Línea 14" fill="none" stroke="#fff" stroke-miterlimit="10" stroke-width="3" d="M5637.4 6847.585v-9.64"/><g data-name="Grupo 187"><path data-name="Línea 15" fill="none" stroke="#fff" stroke-miterlimit="10" stroke-width="3" d="M5637.4 6887.168v11.521"/></g></g></g><g data-name="Grupo 190" fill="none" stroke="#fff" stroke-miterlimit="10" stroke-width="3"><path data-name="Trazado 134" d="m.977 72.498 49.754-42.666 15.48 15.479L102.832 8.69"/><path data-name="Trazado 135" d="m107.015 16.713-4.946-6.292-4.946-6.292 7.922-1.138 7.921-1.138-2.976 7.429Z"/></g></g></svg>