<svg xmlns="http://www.w3.org/2000/svg" width="24.735" height="24.742"><g data-name="Grupo 158" fill="#fff"><path data-name="Trazado 112" d="M24.732 12.374v5.989a6.3 6.3 0 0 1-6.354 6.374q-6.011.012-12.021 0a6.292 6.292 0 0 1-6.349-6.332q-.015-6.033 0-12.065A6.293 6.293 0 0 1 6.317.011q6.031-.02 12.064 0a6.3 6.3 0 0 1 6.351 6.376c.006 1.995 0 3.991 0 5.987Zm-1.762.042V6.294a4.542 4.542 0 0 0-4.5-4.521q-6.1-.018-12.2 0a4.518 4.518 0 0 0-4.5 4.519q-.019 6.056 0 12.112a4.527 4.527 0 0 0 4.586 4.565q5.991.014 11.982 0a4.542 4.542 0 0 0 4.632-4.611c.006-1.977 0-3.96 0-5.939Z"/><path data-name="Trazado 113" d="M12.35 6.085a6.288 6.288 0 1 1-6.275 6.263 6.281 6.281 0 0 1 6.275-6.263Zm4.535 6.259a4.517 4.517 0 1 0-4.466 4.546 4.525 4.525 0 0 0 4.466-4.546Z"/><path data-name="Trazado 114" d="M20.807 5.465a1.516 1.516 0 1 1-1.494-1.53 1.488 1.488 0 0 1 1.494 1.53Z"/></g></svg>