<svg xmlns="http://www.w3.org/2000/svg" width="27.114" height="25.921"><g data-name="Grupo 160"><g data-name="Grupo 159" fill="#fff"><path data-name="Trazado 115" d="M15.226 10.808c.192-.252.376-.51.578-.755a5.369 5.369 0 0 1 2.65-1.767 7.094 7.094 0 0 1 2.448-.252 6.592 6.592 0 0 1 2.951.832 5.875 5.875 0 0 1 2.474 2.813 8.723 8.723 0 0 1 .753 3.488c.025 3.535.025 7.069.034 10.6 0 .04-.006.08-.012.151h-5.556c-.263 0-.263 0-.263-.256 0-3.155.006-6.309 0-9.464a4.53 4.53 0 0 0-.583-2.352 2.489 2.489 0 0 0-2.112-1.229 3.175 3.175 0 0 0-3.308 2.467 3.512 3.512 0 0 0-.088.87q-.009 4.842 0 9.685c0 .279 0 .279-.285.279H9.384V8.444c.053 0 .123-.01.193-.01h5.382c.179 0 .241.04.238.23-.013.64-.005 1.28-.005 1.921v.217Z"/><path data-name="Trazado 116" d="M.354 8.444h5.78v17.457H.354Z"/><path data-name="Trazado 117" d="M3.328 6.052a3.319 3.319 0 0 1-2.5-.924A3.056 3.056 0 0 1 1.107.685 3.492 3.492 0 0 1 3.593.013a3.205 3.205 0 0 1 1.732.594 3 3 0 0 1-1.079 5.319 2.325 2.325 0 0 1-.271.066c-.252.028-.504.047-.647.06Z"/></g></g></svg>