<svg xmlns="http://www.w3.org/2000/svg" width="103.279" height="87.037"><g data-name="Grupo 181" fill="#fff"><path data-name="Trazado 126" d="M9.885 14.548V.06h5.74c14.9-.008 29.8.1 44.694-.059 13.858-.146 25.386 4.848 33.6 15.949 9.473 12.811 11.814 26.893 6.773 42.461-4.176 12.9-12.8 21.075-24.469 26.631a20.581 20.581 0 0 1-8.382 1.6c-18.11.227-36.223.206-54.333.394-3.16.033-4.068-1.2-4-4.209.269-12.753-1.4-10.3 9.888-10.444 12.865-.16 25.744-.393 38.6.014 23.9.759 35.125-22.8 26.041-41.913-5.057-10.639-13.9-15.424-25.033-15.79-14.375-.472-28.777-.135-43.167-.147Z"/><path data-name="Trazado 127" d="M4.449 28.102c4.584 4.441 8.886 8.648 13.239 12.8 1.862 1.777 2.32 3.266.1 5.28-4.557 4.131-8.9 8.5-13.415 12.837-1-.843-2.64-1.57-3.07-2.741-.561-1.525-.27-3.412-.1-5.12.039-.4 1.09-.65 1.611-1.054 6.909-5.361 6.906-5.365.664-11.534-4.788-4.724-4.788-4.724.971-10.468Z"/></g></svg>