<svg xmlns="http://www.w3.org/2000/svg" width="99.23" height="110.294" viewBox="0 0 99.23 110.294">
  <g id="Grupo_234" data-name="Grupo 234" transform="translate(-1550.371 -3495.166)">
    <path id="Trazado_133" data-name="Trazado 133" d="M1560.715,3522.806a27.78,27.78,0,0,1,27.731-26.14h23.079a27.781,27.781,0,0,1,27.734,26.173" fill="none" stroke="#fff" stroke-miterlimit="10" stroke-width="3"/>
    <path id="Trazado_134" data-name="Trazado 134" d="M1638.282,3573.591a39.331,39.331,0,0,1-76.595-.012" fill="none" stroke="#fff" stroke-miterlimit="10" stroke-width="3"/>
    <path id="Trazado_135" data-name="Trazado 135" d="M1551.871,3533.582v29.567a11.305,11.305,0,0,0,11.305,11.305h20.391a11.511,11.511,0,0,0,9.368-4.976,8.631,8.631,0,0,1,14.1,0,11.512,11.512,0,0,0,9.368,4.977H1636.8a11.305,11.305,0,0,0,11.306-11.305v-29.567a11.305,11.305,0,0,0-11.306-11.3h-73.619A11.3,11.3,0,0,0,1551.871,3533.582Z" fill="none" stroke="#fff" stroke-miterlimit="10" stroke-width="3"/>
    <rect id="Rectángulo_137" data-name="Rectángulo 137" width="16.681" height="25.611" transform="translate(1591.645 3496.666)" fill="none" stroke="#fff" stroke-miterlimit="10" stroke-width="3"/>
    <path id="Trazado_136" data-name="Trazado 136" d="M1595.385,3585.918s13.856,3.668,20.784-6.113" fill="none" stroke="#fff" stroke-miterlimit="10" stroke-width="3"/>
  </g>
</svg>
