<svg xmlns="http://www.w3.org/2000/svg" width="74.213" height="74.213" viewBox="0 0 74.213 74.213">
  <g id="Grupo_169" data-name="Grupo 169" transform="translate(0.5 0.5)" opacity="0.6">
    <g id="Grupo_165" data-name="Grupo 165">
      <circle id="Elipse_15" data-name="Elipse 15" cx="36.606" cy="36.606" r="36.606" fill="none" stroke="#fff" stroke-miterlimit="10" stroke-width="1"/>
    </g>
    <g id="Grupo_168" data-name="Grupo 168" transform="translate(14.023 13.811)">
      <path id="Trazado_115" data-name="Trazado 115" d="M362.714,2453.388v-16.774l-14.527-8.387-14.527,8.387v16.774l14.527,8.387Z" transform="translate(-325.62 -2425.398)" fill="none" stroke="#fff" stroke-miterlimit="10" stroke-width="1"/>
      <g id="Grupo_166" data-name="Grupo 166" transform="translate(0 31.37)">
        <line id="Línea_30" data-name="Línea 30" x1="9.591" y2="9.591" transform="translate(4.304)" fill="none" stroke="#fff" stroke-miterlimit="10" stroke-width="1"/>
        <circle id="Elipse_16" data-name="Elipse 16" cx="2.654" cy="2.654" r="2.654" transform="translate(0 8.913)" fill="none" stroke="#fff" stroke-miterlimit="10" stroke-width="1"/>
      </g>
      <g id="Grupo_167" data-name="Grupo 167" transform="translate(35.062)">
        <line id="Línea_31" data-name="Línea 31" y1="5.894" x2="5.473" transform="translate(0 4.304)" fill="none" stroke="#fff" stroke-miterlimit="10" stroke-width="1"/>
        <circle id="Elipse_17" data-name="Elipse 17" cx="2.654" cy="2.654" r="2.654" transform="translate(4.795)" fill="none" stroke="#fff" stroke-miterlimit="10" stroke-width="1"/>
      </g>
      <line id="Línea_32" data-name="Línea 32" x2="2.763" transform="translate(37.095 27.99)" fill="none" stroke="#fff" stroke-miterlimit="10" stroke-width="1"/>
      <circle id="Elipse_18" data-name="Elipse 18" cx="1.908" cy="1.908" r="1.908" transform="translate(39.643 26.082)" fill="none" stroke="#fff" stroke-miterlimit="10" stroke-width="1"/>
      <path id="Trazado_116" data-name="Trazado 116" d="M337.948,2447.261v3.651l2.76,1.594" transform="translate(-325.62 -2425.398)" fill="none" stroke="#fff" stroke-miterlimit="10" stroke-width="1"/>
      <path id="Trazado_117" data-name="Trazado 117" d="M348.188,2433.177l-3.5,2.02" transform="translate(-325.62 -2425.398)" fill="none" stroke="#fff" stroke-miterlimit="10" stroke-width="1"/>
      <path id="Trazado_118" data-name="Trazado 118" d="M344.818,2454.879l3.37,1.945" transform="translate(-325.62 -2425.398)" fill="none" stroke="#fff" stroke-miterlimit="10" stroke-width="1"/>
      <path id="Trazado_119" data-name="Trazado 119" d="M340.5,2437.618l-2.548,1.471v2.828" transform="translate(-325.62 -2425.398)" fill="none" stroke="#fff" stroke-miterlimit="10" stroke-width="1"/>
      <path id="Trazado_120" data-name="Trazado 120" d="M358.427,2447.261v3.651l-2.76,1.594" transform="translate(-325.62 -2425.398)" fill="none" stroke="#fff" stroke-miterlimit="10" stroke-width="1"/>
      <path id="Trazado_121" data-name="Trazado 121" d="M348.188,2433.177l3.5,2.02" transform="translate(-325.62 -2425.398)" fill="none" stroke="#fff" stroke-miterlimit="10" stroke-width="1"/>
      <path id="Trazado_122" data-name="Trazado 122" d="M351.557,2454.879l-3.369,1.945" transform="translate(-325.62 -2425.398)" fill="none" stroke="#fff" stroke-miterlimit="10" stroke-width="1"/>
      <path id="Trazado_123" data-name="Trazado 123" d="M355.879,2437.618l2.548,1.471v2.828" transform="translate(-325.62 -2425.398)" fill="none" stroke="#fff" stroke-miterlimit="10" stroke-width="1"/>
    </g>
  </g>
</svg>
