<svg xmlns="http://www.w3.org/2000/svg" width="137.472" height="86" viewBox="0 0 137.472 86">
  <g id="Grupo_297" data-name="Grupo 297" transform="translate(-693.106 -3501.941)">
    <g id="Grupo_233" data-name="Grupo 233">
      <g id="Grupo_232" data-name="Grupo 232">
        <path id="Trazado_132" data-name="Trazado 132" d="M800.578,3563.476v3.04a4.115,4.115,0,0,1-4.115,4.115H698.721a4.115,4.115,0,0,1-4.115-4.115v-58.959a4.115,4.115,0,0,1,4.115-4.116h97.742a4.115,4.115,0,0,1,4.115,4.116v19.291" fill="none" stroke="#fff" stroke-miterlimit="10" stroke-width="3"/>
        <line id="Línea_44" data-name="Línea 44" y2="15.809" transform="translate(747.592 3570.631)" fill="none" stroke="#fff" stroke-miterlimit="10" stroke-width="3"/>
        <line id="Línea_45" data-name="Línea 45" x2="43.476" transform="translate(725.854 3586.441)" fill="none" stroke="#fff" stroke-miterlimit="10" stroke-width="3"/>
      </g>
    </g>
    <g id="Grupo_296" data-name="Grupo 296">
      <rect id="Rectángulo_136" data-name="Rectángulo 136" width="63.926" height="35.576" rx="6.811" transform="translate(765.152 3526.87)" fill="none" stroke="#fff" stroke-miterlimit="10" stroke-width="3"/>
      <line id="Línea_46" data-name="Línea 46" x1="63.926" transform="translate(765.152 3533.681)" fill="none" stroke="#fff" stroke-miterlimit="10" stroke-width="3"/>
      <circle id="Elipse_26" data-name="Elipse 26" cx="5.417" cy="5.417" r="5.417" transform="translate(804.362 3545.419)" fill="none" stroke="#fff" stroke-miterlimit="10" stroke-width="3"/>
      <circle id="Elipse_27" data-name="Elipse 27" cx="5.417" cy="5.417" r="5.417" transform="translate(811.321 3545.419)" fill="none" stroke="#fff" stroke-miterlimit="10" stroke-width="3"/>
    </g>
  </g>
</svg>
