<svg xmlns="http://www.w3.org/2000/svg" width="131.731" height="132.022" viewBox="0 0 131.731 132.022">
  <g id="Grupo_290" data-name="Grupo 290" transform="translate(-726.305 -535.398)">
    <g id="Grupo_6" data-name="Grupo 6" transform="translate(-1653 -1914)">
      <ellipse id="Elipse_43" data-name="Elipse 43" cx="65.366" cy="65.511" rx="65.366" ry="65.511" transform="translate(2379.805 2449.898)" fill="none" stroke="#fff" stroke-miterlimit="10" stroke-width="1"/>
    </g>
    <g id="Grupo_12" data-name="Grupo 12" transform="translate(-1653 -1914)">
      <path id="Trazado_164" data-name="Trazado 164" d="M2413.159,2519.9v11.421h-7.787v-30.8s18.688-2.6,22.149,5.018c0-.173-5.191,14.363-5.191,14.363Z" fill="none" stroke="#fff" stroke-linecap="round" stroke-linejoin="round" stroke-width="1"/>
      <path id="Trazado_165" data-name="Trazado 165" d="M2412.812,2506.059v8.307h5.711s2.769-1.385,2.769-4.154S2420.253,2506.059,2412.812,2506.059Z" fill="none" stroke="#fff" stroke-linecap="round" stroke-linejoin="round" stroke-width="1"/>
      <path id="Trazado_166" data-name="Trazado 166" d="M2430.463,2512.116l-4.326,12.113,4.326,7.095h7.614l5.71-15.614,5.191,15.614h8.825l11.94-30.456h-8.479l-8.133,19.035-6.057-19.035h-6.4l-6.057,19.035Z" fill="none" stroke="#fff" stroke-linecap="round" stroke-linejoin="round" stroke-width="1"/>
      <path id="Trazado_167" data-name="Trazado 167" d="M2474.1,2500.868l-4.352,11.525,3.572,7.951h-6.548l-2.339,5.613h10.913l2.183,5.368h8.419Z" fill="none" stroke="#fff" stroke-linecap="round" stroke-linejoin="round" stroke-width="1"/>
    </g>
  </g>
</svg>
