<svg xmlns="http://www.w3.org/2000/svg" width="131.731" height="132.517" viewBox="0 0 131.731 132.517">
  <g id="Grupo_11" data-name="Grupo 11" transform="translate(-2059.112 -2443.634)">
    <g id="Grupo_262" data-name="Grupo 262">
      <g id="Grupo_258" data-name="Grupo 258">
        <ellipse id="Elipse_51" data-name="Elipse 51" cx="65.366" cy="65.758" rx="65.366" ry="65.758" transform="translate(2059.612 2444.134)" fill="none" stroke="#fff" stroke-miterlimit="10" stroke-width="1"/>
      </g>
      <g id="Grupo_261" data-name="Grupo 261">
        <g id="Grupo_260" data-name="Grupo 260">
          <g id="Grupo_259" data-name="Grupo 259">
            <path id="Trazado_159" data-name="Trazado 159" d="M2126.575,2551.593h-2.85c-.19-.02-.39-.06-.58-.07a41.573,41.573,0,0,1-6.59-.64,21.222,21.222,0,0,1-6.88-2.33,9.172,9.172,0,0,1-5.01-8.61c.07-5.82.01-11.65.03-17.47a16.458,16.458,0,0,1,.17-2.63,9.211,9.211,0,0,1,4.6-6.85,12.239,12.239,0,0,1,6.29-1.74c6.73-.03,13.45-.01,20.18-.03a16.275,16.275,0,0,0,2.7-.21,10.012,10.012,0,0,0,8.19-6.62,14.778,14.778,0,0,0,.95-5.34c.01-3.05,0-6.09,0-9.14,0-.46.04-.5.5-.5,2.1,0,4.19.01,6.29,0a9.3,9.3,0,0,1,5.92,2.06,13.3,13.3,0,0,1,3.94,5.37,29.314,29.314,0,0,1,2.09,9.56c.06.81.11,1.63.16,2.45v2.36c-.02.16-.05.32-.07.48-.1,1.28-.15,2.56-.3,3.84a22.734,22.734,0,0,1-1.92,7.04,12.673,12.673,0,0,1-4.83,5.64,12.463,12.463,0,0,1-6.64,1.72c-9.14-.02-18.27-.01-27.41-.02a1.8,1.8,0,0,0-.52.02c-.11.04-.27.18-.27.27-.02.79-.02,1.58-.01,2.36a.254.254,0,0,0,.3.29c.14-.01.28,0,.42,0h18.97c.61,0,.61,0,.61.62q.015,4.2.02,8.41a7.044,7.044,0,0,1-.44,2.76,8.133,8.133,0,0,1-3.5,3.83,17.219,17.219,0,0,1-4.55,1.86,40.66,40.66,0,0,1-8.65,1.18C2127.455,2551.533,2127.015,2551.573,2126.575,2551.593Z" fill="none" stroke="#fff" stroke-miterlimit="10" stroke-width="1"/>
            <path id="Trazado_160" data-name="Trazado 160" d="M2136.295,2545.2a3.68,3.68,0,1,0-3.68-3.68A3.7,3.7,0,0,0,2136.295,2545.2Z" fill="none" stroke="#fff" stroke-miterlimit="10" stroke-width="1"/>
            <path id="Trazado_161" data-name="Trazado 161" d="M2110.255,2489.823h14.42c.53,0,.53,0,.53-.54v-1.8c0-.52,0-.52-.5-.52q-9.555,0-19.11-.01c-.7,0-.65.11-.66-.65,0-2.85.05-5.7-.01-8.55a6.786,6.786,0,0,1,2.75-5.68,14.82,14.82,0,0,1,5.36-2.55,38.725,38.725,0,0,1,8.71-1.26,61.188,61.188,0,0,1,7.29.07,29.015,29.015,0,0,1,10.34,2.35,11.1,11.1,0,0,1,4.24,3.29,8.111,8.111,0,0,1,1.71,4.97q.03,9.555,0,19.11a11.034,11.034,0,0,1-1.07,4.85,9.657,9.657,0,0,1-6.11,5.04,14.342,14.342,0,0,1-4.42.65q-9.9-.015-19.8,0a12.992,12.992,0,0,0-5.29.99,10.167,10.167,0,0,0-5.68,6.44,14.28,14.28,0,0,0-.72,4.54c.01,3.12.01,6.23.01,9.35,0,.5,0,.5-.49.5-2.08,0-4.15-.03-6.22,0a9.433,9.433,0,0,1-7.83-3.78,17.487,17.487,0,0,1-3.23-6.71,40.669,40.669,0,0,1-1.16-11.99,31.875,31.875,0,0,1,1.07-7.58,16.167,16.167,0,0,1,3.49-6.72,11.505,11.505,0,0,1,7.83-3.75c.63-.05,1.27-.06,1.9-.06Z" fill="none" stroke="#fff" stroke-miterlimit="10" stroke-width="1"/>
            <path id="Trazado_162" data-name="Trazado 162" d="M2110.015,2478.213a3.64,3.64,0,1,0,3.68-3.6A3.616,3.616,0,0,0,2110.015,2478.213Z" fill="none" stroke="#fff" stroke-miterlimit="10" stroke-width="1"/>
          </g>
        </g>
      </g>
    </g>
    <g id="Grupo_263" data-name="Grupo 263" opacity="0.19">
      <path id="Trazado_163" data-name="Trazado 163" d="M2166.675,2508.853v2.36c-.02.16-.05.32-.07.48-.1,1.28-.15,2.56-.3,3.84a22.734,22.734,0,0,1-1.92,7.04,12.673,12.673,0,0,1-4.83,5.64,12.463,12.463,0,0,1-6.64,1.72c-9.14-.02-18.27-.01-27.41-.02a1.8,1.8,0,0,0-.52.02c-.11.04-.27.18-.27.27-.02.79-.02,1.58-.01,2.36a.254.254,0,0,0,.3.29c.14-.01.28,0,.42,0h18.97c.61,0,.61,0,.61.62q.015,4.2.02,8.41a7.044,7.044,0,0,1-.44,2.76,8.133,8.133,0,0,1-3.5,3.83,17.219,17.219,0,0,1-4.55,1.86,40.66,40.66,0,0,1-8.65,1.18c-.43.02-.87.06-1.31.08h-2.85c-.19-.02-.39-.06-.58-.07a41.573,41.573,0,0,1-6.59-.64,21.222,21.222,0,0,1-6.88-2.33,9.172,9.172,0,0,1-5.01-8.61c.07-5.82.01-11.65.03-17.47a16.458,16.458,0,0,1,.17-2.63,9.211,9.211,0,0,1,4.6-6.85,12.239,12.239,0,0,1,6.29-1.74c6.73-.03,13.45-.01,20.18-.03a16.275,16.275,0,0,0,2.7-.21,10.012,10.012,0,0,0,8.19-6.62,14.778,14.778,0,0,0,.95-5.34c.01-3.05,0-6.09,0-9.14,0-.46.04-.5.5-.5,2.1,0,4.19.01,6.29,0a9.3,9.3,0,0,1,5.92,2.06,13.3,13.3,0,0,1,3.94,5.37,29.314,29.314,0,0,1,2.09,9.56C2166.575,2507.213,2166.625,2508.033,2166.675,2508.853Zm-26.69,32.69a3.685,3.685,0,1,0-3.69,3.66A3.7,3.7,0,0,0,2139.985,2541.543Z" fill="#fff"/>
    </g>
  </g>
</svg>
