<svg xmlns="http://www.w3.org/2000/svg" width="27.141" height="31.167"><defs><clipPath id="a"><path data-name="Rectángulo 128" fill="none" d="M0 0h27.141v31.167H0z"/></clipPath></defs><g data-name="Grupo 274" clip-path="url(#a)"><path data-name="Trazado 160" d="M11.18 11.448v5.412c-.282-.043-.544-.092-.808-.122a4.527 4.527 0 0 0-3.033 8.237 4.306 4.306 0 0 0 4.552.318 4.235 4.235 0 0 0 2.5-3.815c.066-1.8.028-3.613.029-5.419V0h5.342c.044.394.064.787.135 1.171A7.223 7.223 0 0 0 25.618 7.2c.431.113.877.165 1.311.267a.323.323 0 0 1 .2.22c.01 1.651.006 3.3 0 4.953a.442.442 0 0 1-.039.1 12.961 12.961 0 0 1-7.305-2.419v.407c0 3.457.023 6.915-.006 10.372a9.607 9.607 0 0 1-4.979 8.736 9.889 9.889 0 1 1-5.875-18.425 17.86 17.86 0 0 1 1.866-.012 3.36 3.36 0 0 1 .389.049" fill="#fff"/></g></svg>