<svg xmlns="http://www.w3.org/2000/svg" width="499.787" height="93.02"><g data-name="Grupo 271"><path data-name="Trazado 139" d="M283.726 92.929c.031.02.069.047.129.091l.009-.078-.111-.009Z" fill="#fff"/><path data-name="Trazado 140" d="M283.727 92.928c-.114-.074-.071-.02 0 0Z" fill="#fff"/><g data-name="Grupo 286"><g data-name="Grupo 283" fill="#fff"><path data-name="Trazado 161" d="M159.167 65.848h3.067v24.341h15.3v2.834h-18.363Z"/><path data-name="Trazado 162" d="M232.578 93.02h-3.3l-3.184-7.182h-14.79l-3.222 7.182h-3.145l12.385-27.369h2.872ZM218.72 69.261l-6.212 13.859h12.384Z"/><path data-name="Trazado 163" d="M281.998 65.848h2.989v27.175h-2.446l-17.547-22.284v22.284h-2.99V65.848h2.873l17.121 21.779Z"/><path data-name="Trazado 164" d="M339.569 84.77a12.589 12.589 0 0 1-2.97 4.329 14.051 14.051 0 0 1-4.58 2.873 15.8 15.8 0 0 1-5.843 1.048h-9.434V65.848h9.434a16.064 16.064 0 0 1 5.843 1.029 13.807 13.807 0 0 1 4.58 2.853 12.643 12.643 0 0 1 2.97 4.309 14.267 14.267 0 0 1 0 10.734Zm-2.931-9.53a10.137 10.137 0 0 0-2.252-3.436 10.356 10.356 0 0 0-3.552-2.29 12.477 12.477 0 0 0-4.658-.835h-6.367v21.507h6.367a12.742 12.742 0 0 0 4.658-.816 10.02 10.02 0 0 0 5.8-5.667 11.038 11.038 0 0 0 .8-4.232 11.224 11.224 0 0 0-.796-4.231Z"/></g><g data-name="Grupo 285"><path data-name="Trazado 165" d="M363.931 1.304v6.244a1.189 1.189 0 0 1-1.134 1.237H342.72a1.19 1.19 0 0 0-1.135 1.238v39.485a1.19 1.19 0 0 1-1.131 1.24h-6.368a1.19 1.19 0 0 1-1.135-1.238V9.677a9.61 9.61 0 0 1 9.611-9.61h20.235a1.193 1.193 0 0 1 1.134 1.237Zm-28.4-1.238h-16.918a1.189 1.189 0 0 0-1.131 1.239v6.243a1.188 1.188 0 0 0 1.131 1.239h6.664a2.426 2.426 0 0 0 2.323-1.776 9.619 9.619 0 0 1 8.252-6.895.964.964 0 0 0-.324-.05Z" fill="#fff"/><path data-name="Trazado 166" d="M61.01 25.234v.235c0 13.934-10.736 25.232-23.98 25.232H7.143a1.212 1.212 0 0 1-1.179-1.241v-6.242a1.211 1.211 0 0 1 1.179-1.24h29.019c9.334 0 15.829-7.585 15.829-16.653 0-9.2-7.089-16.653-15.829-16.653H7.143a1.21 1.21 0 0 1-1.179-1.241V1.243A1.213 1.213 0 0 1 7.143.003H37.03c13.244 0 23.98 11.297 23.98 25.231Z" fill="#fff"/><path data-name="Trazado 167" d="M75.404 1.223v48.255a1.163 1.163 0 0 1-1.111 1.21h-6.479a1.163 1.163 0 0 1-1.111-1.21V1.223A1.163 1.163 0 0 1 67.814.012h6.479a1.163 1.163 0 0 1 1.111 1.211Z" fill="#fff"/><path data-name="Trazado 168" d="M135.766 35.538v.761a15.1 15.1 0 0 1-3.655 10.214 11.227 11.227 0 0 1-8.789 4.233h-40.4a1.186 1.186 0 0 1-1.132-1.235v-6.115a1.263 1.263 0 0 1 1.2-1.313h39.183c4.866 0 5.143-5.8 5.043-7.081-.1-1.217-.966-5.236-4.654-5.236l-27.655.03c-7.244.006-13.122-6.395-13.122-14.3V14.36c0-7.894 5.868-14.3 13.107-14.3h39.686a1.264 1.264 0 0 1 1.2 1.323l-.036 6.09a1.26 1.26 0 0 1-1.2 1.3H96.135a6.181 6.181 0 0 0 0 12.315h26.038c12.422.01 13.593 10.849 13.593 14.45Z" fill="#fff"/><path data-name="Trazado 169" d="M193.295 49.261a.848.848 0 0 1-.545 1.424h-8.859a3.534 3.534 0 0 1-2.565-1.129L170.77 38.434a3 3 0 0 0-1.878-.894l-18.524-.012a1.19 1.19 0 0 0-1.134 1.237v10.743a1.19 1.19 0 0 1-1.136 1.238h-6.431a1.189 1.189 0 0 1-1.134-1.238V37.919a9.057 9.057 0 0 1 9.058-9.059h30.518c4.867 0 5.854-7.25 5.854-10.038 0-5.923-1.774-10.039-5.461-10.039h-38.571a1.4 1.4 0 0 1-1.4-1.4V1.298a1.19 1.19 0 0 1 1.135-1.237h39.62c7.593 0 13.214 7.347 13.214 18.756 0 4.811-2.005 16.5-11.227 18.423a.472.472 0 0 0-.181.744Z" fill="#fff"/><path data-name="Trazado 170" d="m252.854 1.241-.007 25.818a23.624 23.624 0 0 1-23.624 23.623h-5.841a23.624 23.624 0 0 1-23.623-23.623l.007-25.809a1.19 1.19 0 0 1 1.135-1.238l6.427-.009a1.189 1.189 0 0 1 1.139 1.238v24.8c.075 9.43 7.314 17.054 16.238 17.054h3.143c8.96 0 16.225-7.681 16.243-17.162l.01-24.684a1.191 1.191 0 0 1 1.134-1.24l6.483-.006a1.191 1.191 0 0 1 1.136 1.238Z" fill="#fff"/><path data-name="Trazado 171" d="M376.398 1.223v48.255a1.164 1.164 0 0 1-1.111 1.21h-6.48a1.164 1.164 0 0 1-1.111-1.21V1.223a1.164 1.164 0 0 1 1.111-1.211h6.48a1.164 1.164 0 0 1 1.111 1.211Z" fill="#fff"/><path data-name="Trazado 172" d="m442.712 1.092-15.849 38.6c-3.7 9-13.551 13.712-22.753 9.331a17.927 17.927 0 0 1-8.652-9.863L380.604 1.081a.768.768 0 0 1 .65-1.075h7.968a2 2 0 0 1 1.845 1.346l13.182 34.782a8.08 8.08 0 0 0 15.391-.066l12.86-34.7a2.006 2.006 0 0 1 1.852-1.361h7.711a.771.771 0 0 1 .649 1.085Z" fill="#fff"/><path data-name="Trazado 173" d="M499.786 1.602q-.018 2.787-.049 5.567a1.579 1.579 0 0 1-1.578 1.563h-51.178a1.386 1.386 0 0 1-1.385-1.385V1.34a1.338 1.338 0 0 1 1.338-1.337l51.271.009a1.581 1.581 0 0 1 1.581 1.59Zm-.436 42.016q-.038 2.756-.073 5.513a1.576 1.576 0 0 1-1.575 1.557h-50.967a1.194 1.194 0 0 1-1.139-1.243V31.524a10.481 10.481 0 0 1 10.481-10.481h27.26a1.575 1.575 0 0 1 1.574 1.593c-.018 1.84-.032 3.676-.054 5.516a1.574 1.574 0 0 1-1.577 1.557l-26.86-.031a2.072 2.072 0 0 0-2.074 2.063l-.046 9.042a1.194 1.194 0 0 0 1.139 1.243h42.335a1.574 1.574 0 0 1 1.58 1.592Z" fill="#fff"/><path data-name="Trazado 174" d="M298.938.064h-39.624a1.187 1.187 0 0 0-1.132 1.232v48.209a1.182 1.182 0 0 0 1.132 1.232l6.428.007a1.194 1.194 0 0 0 1.139-1.239V38.763a1.189 1.189 0 0 1 1.132-1.239l30.234.021c11.547 0 13.9-13.476 13.9-18.722.007-11.412-5.613-18.759-13.209-18.759Zm-1.182 28.789h-30.519a2.774 2.774 0 0 0-.356.015V8.778h31.267c3.687 0 5.46 4.115 5.46 10.038 0 2.79-.982 10.037-5.854 10.037Z" fill="#fff"/><g data-name="Grupo 284"><path data-name="Trazado 175" d="M.076 19.592a.339.339 0 0 1-.077-.178.325.325 0 0 1 .125-.242l2.715-2.65.131-.1c.024 0 .084 0 .181.1l8.667 8.7a.4.4 0 0 1 .111.15.327.327 0 0 1-.109.173l-8.687 8.67c-.012.011-.044.044-.161.044a.275.275 0 0 1-.212-.079L.11 31.528a1.8 1.8 0 0 1-.089-.181l.031-.106 5.778-5.856Z" fill="#fff"/></g></g></g></g></svg>