<svg xmlns="http://www.w3.org/2000/svg" width="439.953" height="80.273"><g data-name="Grupo 288"><g data-name="Grupo 287" fill="#fff"><path data-name="Trazado 176" d="M85.024.001v80.273h-9.443V13.451l-33.072 41.34-33.071-41.34v66.822H-.003V.001h10.8l31.714 39.673L74.226.001Z"/><path data-name="Trazado 177" d="M151.381 9.441a13.822 13.822 0 0 0-10.057 4.134 13.616 13.616 0 0 0-4.134 10v9.5h66.143v9.44h-66.142v28.32h66.143v9.441H127.75v-56.7A23.6 23.6 0 0 1 151.381.006h51.952v9.441Z"/><path data-name="Trazado 178" d="M264.94 9.441a9.481 9.481 0 0 0-9.441 9.44v4.69a9.482 9.482 0 0 0 9.441 9.5h37.818a18.854 18.854 0 0 1 18.88 18.88v9.44a18.961 18.961 0 0 1-18.88 18.88h-56.7V70.83h56.7a9.481 9.481 0 0 0 9.441-9.44v-9.44a8.96 8.96 0 0 0-2.777-6.664 9.088 9.088 0 0 0-6.664-2.776h-37.822a18.961 18.961 0 0 1-18.878-18.94v-4.69A18.854 18.854 0 0 1 264.938 0h56.7v9.441Z"/><path data-name="Trazado 179" d="M439.953.001v9.441h-33.071v70.832h-9.441V9.441h-33.067V0Z"/></g></g></svg>