<svg xmlns="http://www.w3.org/2000/svg" width="253.58" height="97.497"><g data-name="Grupo 270"><g data-name="Grupo 103"><g data-name="Grupo 102" fill="#fff"><path data-name="Trazado 133" d="M0 25.436a114.761 114.761 0 0 1 13.613-2.848 111.9 111.9 0 0 1 17.5-1.322 42.733 42.733 0 0 1 15.494 2.431 23.3 23.3 0 0 1 9.793 6.877 26.847 26.847 0 0 1 5.141 10.559 56.165 56.165 0 0 1 1.527 13.614V96.01h-20.7V57.25q0-10-2.637-14.171t-9.867-4.169c-1.482 0-3.053.068-4.723.208s-3.148.3-4.443.488v56.4h-20.7Z"/><path data-name="Trazado 134" d="M97.456 0a40.491 40.491 0 0 1 9.527 1.05 46.442 46.442 0 0 1 6.682 2.043l-3.588 14.724a24.1 24.1 0 0 0-5.383-1.672 28.764 28.764 0 0 0-5.383-.556 15.069 15.069 0 0 0-5.631.928 8.73 8.73 0 0 0-3.588 2.537 9.864 9.864 0 0 0-1.857 3.835 20.079 20.079 0 0 0-.553 4.825v3.219h22.766v15.34H87.682v49.74H69.245V27.468q0-12.623 7.113-20.045T97.456 0Z"/><path data-name="Trazado 135" d="m115.188 14.724 18.434-2.97v19.178h22.146v15.341h-22.146v22.891q0 5.818 2.043 9.28t8.227 3.464a35.2 35.2 0 0 0 6.125-.557 31.41 31.41 0 0 0 5.752-1.546l2.6 14.353a52.225 52.225 0 0 1-7.42 2.351 43.323 43.323 0 0 1-10.027.988 33 33 0 0 1-12.494-2.04 19.618 19.618 0 0 1-7.918-5.693 21.139 21.139 0 0 1-4.146-8.846 52.252 52.252 0 0 1-1.172-11.506Z"/><path data-name="Trazado 136" d="M183.462 12.122a10.113 10.113 0 0 1-3.283 7.981 11.733 11.733 0 0 1-15.463 0 11.348 11.348 0 0 1 0-15.963 11.734 11.734 0 0 1 15.463 0 10.123 10.123 0 0 1 3.283 7.982Zm-1.734 83.889H163.29V30.932h18.438Z"/><path data-name="Trazado 137" d="m220.723 49.175 12.936-18.243h19.059l-22.59 31.646a193.913 193.913 0 0 1 13.795 17.729 163.592 163.592 0 0 1 9.658 15.706h-19.768q-1.011-1.861-2.492-4.646t-3.34-5.817a29.859 29.859 0 0 0-3.875-5.141q-2.01-2.1-3.973-3.826-1.869 1.6-3.8 3.539a25.015 25.015 0 0 0-3.67 4.843q-1.743 2.9-3.418 5.744t-2.98 5.3h-18.752q1.55-3.042 4.107-7.285t5.594-8.746a108.134 108.134 0 0 1 6.584-8.757q3.542-4.252 6.953-7.979-6.073-8.625-11.672-16.582t-11.07-15.732h19.914Z"/></g></g></g></svg>