<svg id="Capa_1" data-name="Capa 1" xmlns="http://www.w3.org/2000/svg" viewBox="0 0 52 50"><defs><style>.cls-1{fill:#fff;}</style></defs><path class="cls-1" d="M17,27.9a1,1,0,0,1,.75.15c.06.06.46,0,.32-.14a1.67,1.67,0,0,0-2.11-.46,2.86,2.86,0,0,0-1.35,2.42c0,.41.17.4.25.19s.23-.6.35-.89a2.21,2.21,0,0,1,.43-.56A2.29,2.29,0,0,1,17,27.9Z"/><path class="cls-1" d="M22.55,38.49c.15.13,1.54,1.22,2.82.49s.9-2.44.6-2.95-.65-.17-.54.1c0,0,.63,1.35-.56,1.95a2.84,2.84,0,0,1-2.5-.18C22.13,37.84,22.4,38.35,22.55,38.49Z"/><path class="cls-1" d="M27.64,30.05a3,3,0,0,1,.78-.64c.44-.26,1.15-.65,1.74-.93.84-.39.22-.5-.2-.36-1.87.62-3,1.19-2.9,2C27.1,30.31,27.24,30.51,27.64,30.05Z"/><path class="cls-1" d="M31.67,38.16l-.09,0a3.3,3.3,0,0,0-.83.31c-.69.27-1.45.4-2.14.68l-.47.1h-.07l-1,.2c-.21,0-2.33.32-2.61.34l-1.29,0h-.71l-.7,0-.43-.05h0l-.39-.06c-.26,0-.52-.08-.77-.14l-.46-.11-.61-.18-.4-.14-.4-.17h0a1.34,1.34,0,0,0,0-.28,1.3,1.3,0,0,0-.07-.41,2.06,2.06,0,0,0-.5-.82.27.27,0,0,0-.3-.06.23.23,0,0,0-.11.31,1.79,1.79,0,0,1,.16.59,1.41,1.41,0,0,1,0,.41,1.56,1.56,0,0,1-.11.41l-.08.16a1.34,1.34,0,0,1-.22.31,1.48,1.48,0,0,1-.46.35l-.2.09a.26.26,0,0,0-.16.31.32.32,0,0,0,.33.25,2,2,0,0,0,1.12-.45,1,1,0,0,0,.2-.22,2.16,2.16,0,0,1,.22.39l.3.35.6.76L20.3,43a2.88,2.88,0,0,0,1.14.85,4.12,4.12,0,0,0,.52.24,7.46,7.46,0,0,0,2.21.36A5.49,5.49,0,0,0,26.4,44a4.38,4.38,0,0,0,1.25-.78,6.29,6.29,0,0,0,1-1.38,2.66,2.66,0,0,0,.33-1.08,1.6,1.6,0,0,1,.14-.81,2.07,2.07,0,0,1,1.27-.72l.12-.06.25-.08a9.52,9.52,0,0,1,.92-.41l.34-.18a.24.24,0,0,0,0-.08A.33.33,0,0,0,31.67,38.16Zm-4.46,4.05a2.35,2.35,0,0,1-.92.93h0a4,4,0,0,1-2,.46,4.5,4.5,0,0,1-2.32-.6h0a3.39,3.39,0,0,1-.77-.61.16.16,0,0,1,0-.18.21.21,0,0,1,.18-.1,5.3,5.3,0,0,1,2,.34,9.44,9.44,0,0,1,1,.46.66.66,0,0,0,.77-.09.48.48,0,0,0,.05-.68l0,0h0a12.36,12.36,0,0,0,1.8-.19l.24.08a.16.16,0,0,1,.1.1A.13.13,0,0,1,27.21,42.21ZM28.3,40l-.39.08a1.64,1.64,0,0,1-.05.67.6.6,0,0,1-.46.37l-.49.11h0a14.33,14.33,0,0,1-2.47.22h0a12.65,12.65,0,0,1-4.19-.61,1.17,1.17,0,0,1-.28-.57h0c.29.06.58.12.87.16l.29.05h.11l.29,0c.39,0,.79.07,1.2.08h1.36l1-.07.4-.05a3.62,3.62,0,0,0,.46-.06l.57-.08.44-.07.49-.09.25,0,.13,0,.11,0h0L28.3,40Z"/><path class="cls-1" d="M33.33,35.42a1.48,1.48,0,0,0-.58-.37v0l0,0,0-.06.06-.15,0-.08s0-.09.05-.13a.29.29,0,0,0,0-.09.65.65,0,0,0,0-.13l0-.1,0-.12s0-.07,0-.11a.5.5,0,0,0,0-.12.43.43,0,0,0,0-.11.5.5,0,0,0,0-.12s0-.07,0-.11,0-.08,0-.12,0-.08,0-.12,0-.07,0-.11,0-.08,0-.12V33a.49.49,0,0,0,0-.12V32.3a.49.49,0,0,1,0-.12.31.31,0,0,0,0-.1v-.22s0-.08,0-.12v-.08c0-.05,0-.09,0-.13v-.08s0-.08,0-.13v-.06c0-.05,0-.09,0-.13v-.06c0-.05,0-.09,0-.13v-.05c0-.05,0-.09,0-.13v0s0-.09,0-.13v0a.5.5,0,0,1,0-.12v0s0-.08,0-.12h0s0-.08,0-.12h0l-.09-.36-.16,0,.16,0a.34.34,0,0,0,0-.08h0a.42.42,0,0,0,0,.09l.23-.05a.14.14,0,0,0,0-.28,4.57,4.57,0,0,0-3.75,1.07h0l.38-.23-.38.23-.13.1.13-.1a4.73,4.73,0,0,0-.57.43c-.77.54-1.78,1.1-2.48.57-.42-.33-.56-1.61-.6-2.35a.12.12,0,0,0-.24,0,4,4,0,0,0-.3,1,2.5,2.5,0,0,0,.66,2h0v.52h0c0,.18,0,.37,0,.56a4,4,0,0,0,1,2.84,2.77,2.77,0,0,0,1,.59s-.69.93-.15.78A11,11,0,0,1,29.3,36a4.8,4.8,0,0,1,3.34-.41C33.93,35.88,33.63,35.74,33.33,35.42ZM29.44,34c0,.27-.11,1-.12,1.34a3.57,3.57,0,0,0-.89.55h0a2.05,2.05,0,0,1-1-.5h0l-.17-.19,0-.07-.11-.17L27,34.8s-.05-.1-.08-.16,0-.07,0-.11,0-.15-.07-.22a.64.64,0,0,0,0-.07L26.75,34v0a4.35,4.35,0,0,1-.06-.52h0a3.17,3.17,0,0,1,0-.44.34.34,0,0,1,0-.1,2.52,2.52,0,0,0,1.7-.47,5.37,5.37,0,0,0,.87-.68l.1-.08a10.52,10.52,0,0,0,.08,1.29c0,.25,1,.24,1.05.49S29.49,33.67,29.44,34Zm2.92-1.05V33a.76.76,0,0,0,0,.15s0,.1,0,.15a1.37,1.37,0,0,1,0,.19.78.78,0,0,0,0,.16.43.43,0,0,0,0,.11l-.06.24s0,0,0,.08l-.06.2a.14.14,0,0,0,0,.06l-.1.24,0,.06-.07.13a5.58,5.58,0,0,0,0-1.25,12.66,12.66,0,0,1-.13-3.11l.31-.09h0a10.94,10.94,0,0,1,.28,2.23v.05C32.37,32.73,32.36,32.84,32.36,32.94Zm0-3.55-.3.06.3-.06h0Z"/><path class="cls-1" d="M35.73,17.24l1.72-1.68C39.62,13.4,44.07,9.75,42,6.35a4.07,4.07,0,0,0-3.61-2.26c-4.27.39-8.77,8.49-11.29,13.13a2.16,2.16,0,0,1-.56-.9c-.14-.44.81-1.27.75-1.47s-.61-.22-1.3,0-2.7,2.15-3.14,1.9.11-.71.44-.91-.39-.38-1.66.09a7.82,7.82,0,0,0-2.5,2l-.17.05s0-.09,0-.13v0a4.74,4.74,0,0,1,.3-1.34c.55-1.61,1.35-3.32,2.09-5A40.82,40.82,0,0,0,23.6,6.31C24,4.59,23,3.21,21.74,2.15a3.3,3.3,0,0,0-3.87-.21c-5.59,3.77-5.48,13.48-5.49,19.75-.08.18-.32.74-.64,1.56-.05.13-.1.26-.15.41s-.11.29-.16.44-.15.41-.23.63h0c0,.13-.08.26-.13.39h0a12.89,12.89,0,0,0-.64,4.28h0a3.06,3.06,0,0,0-.62,1.14,10.14,10.14,0,0,0-.28,3.94c.48,3.27,1.42,3.81,2,3.81a1,1,0,0,0,.35-.07,1.3,1.3,0,0,0,.52-.45c-.22,2.17,1.25,4.38,1.86,5.29a12.48,12.48,0,0,0,10.63,5.53c7.94-.21,10.09-7.65,10.2-8h0c.1-.1.21-.19.31-.3h0a6,6,0,0,0,.45-.55h0a3.72,3.72,0,0,0,.19-.34h0l.05-.12c0-.06,0-.12.08-.19l0,0h0a2.34,2.34,0,0,0,.09-.38,1,1,0,0,0,0-.17l.05,0a1,1,0,0,0,.34.07c.57,0,1.5-.54,2-3.81a10.14,10.14,0,0,0-.28-3.94,3,3,0,0,0-.52-1c0-.31,0-.62,0-.94a11.81,11.81,0,0,0-.12-1.47,8.2,8.2,0,0,0-.41-2.67,3.46,3.46,0,0,1,.31.26.35.35,0,0,0,.39.07.26.26,0,0,0,.14-.33,8.46,8.46,0,0,0-2.31-3.45,1.08,1.08,0,0,1,.53-.12.3.3,0,0,0,.3-.19.29.29,0,0,0-.12-.32,11.65,11.65,0,0,0-2.74-.82.24.24,0,0,1-.14-.39C34.6,18.45,35.47,17.49,35.73,17.24Zm1.08,12.91H37a1.18,1.18,0,0,1,.79.6,2.51,2.51,0,0,1,.25.57,8.7,8.7,0,0,1,.23,3.15c-.13.86-.63,3.61-1.83,3.11l-.12-.06a1.25,1.25,0,0,1-.48-.9A3.47,3.47,0,0,1,36,35c.07-.17.19-.37.33-.31a1.44,1.44,0,0,1,.63.6c.1.19.24.23.37.13l.09-.11a1.44,1.44,0,0,0,.12-1l0-.12a2.54,2.54,0,0,0-.37-.88.61.61,0,0,1,.34.25l.09.07c.11.07.23,0,.33-.11a1.36,1.36,0,0,0,.15-.81,3.83,3.83,0,0,0-.32-1.24,1,1,0,0,0-.74-.59c-.66,0-1,.5-1.2.89a1.76,1.76,0,0,1-.12.2C35.75,31.11,36,30.15,36.81,30.15ZM12.44,31.49c-.23-.39-.54-.93-1.19-.89a1,1,0,0,0-.75.59,3.67,3.67,0,0,0-.31,1.23,1.33,1.33,0,0,0,.14.81c.12.18.27.2.4.07l0,0A.65.65,0,0,1,11.1,33a1.88,1.88,0,0,0-.3.62,2.24,2.24,0,0,0-.1.37,1.43,1.43,0,0,0,.11,1c.12.18.26.21.38.1l.09-.11a1.42,1.42,0,0,1,.62-.6c.14-.06.26.13.33.31a3.43,3.43,0,0,1,.17,1.66c0,.1,0,.18-.06.26a1,1,0,0,1-.55.71c-1.2.49-1.7-2.26-1.82-3.11a8.43,8.43,0,0,1,.22-3.15,2.56,2.56,0,0,1,.28-.62,1.13,1.13,0,0,1,.77-.55l.17,0c.78,0,1.06,1,1.15,1.83ZM35,31a16.61,16.61,0,0,1-.66,2.19c-.18.9.42,1.83.62,2.73a8.78,8.78,0,0,1,.26,2.41,4,4,0,0,1-.46,1.4c-.25.5-1.62,1.41-2.09,1.88-.31.5.32.39,1.45-.3a11.76,11.76,0,0,1-9.22,6.34c-5.63.52-9.47-4.59-10-5.37s-1.94-3.49-1.49-5.58c0-.16.08-.32.13-.47.26-.84.92-1.4.8-1.94a24.55,24.55,0,0,1-.86-2.78c-.53-2.77.48-5.8,2.44-6.51a4,4,0,0,1,.72-.18c1.44-.21,2.51.13,4.34,1a18.3,18.3,0,0,1,1.95,1.12,2.41,2.41,0,0,0,2.72,0,18.93,18.93,0,0,1,1.93-1.17c1.74-.89,2.68-1.29,4-1.19a4.2,4.2,0,0,1,1,.22C34.4,25.43,35.38,28.29,35,31Z"/><path class="cls-1" d="M16.26,34.9a2,2,0,0,0,.12.19h0a3,3,0,0,0,2.32,1.42,7.75,7.75,0,0,0,.93.06,4.41,4.41,0,0,0,.52,0h.1a4,4,0,0,0,.9-.21l.09,0a2.58,2.58,0,0,0,.86-.55,4,4,0,0,0,1-2.82c0-.38,0-.74,0-1h0s0,0,0,0l0,0a2.48,2.48,0,0,0,.65-2,4.11,4.11,0,0,0-.3-1,.12.12,0,0,0-.23,0c-.05.73-.18,2-.6,2.35-.71.53-1.72,0-2.48-.58l.07.06h0l-.07-.06c-.22-.15-.43-.25-.6-.38a9.49,9.49,0,0,0-2.67-1,.75.75,0,0,0-.91.55h0v0L16,30v0l0,.11v0l0,.12v0l0,.12v0a.5.5,0,0,0,0,.12v.05a.69.69,0,0,0,0,.13v.06s0,.09,0,.13V31s0,.08,0,.13v.07s0,.08,0,.13v.08s0,.09,0,.13v.09s0,.08,0,.12v.1a.49.49,0,0,0,0,.12v.1s0,.09,0,.13v.22a.45.45,0,0,1,0,.11v.12s0,.08,0,.11v.12a.49.49,0,0,1,0,.12.45.45,0,0,1,0,.11s0,.08,0,.12,0,.08,0,.11a.5.5,0,0,1,0,.12s0,.08,0,.11l0,.13h0a.29.29,0,0,0,0,.09l0,.12s0,.07,0,.1,0,.09,0,.13l0,.09v0l0,.1a.41.41,0,0,0,0,.08.84.84,0,0,0,.06.14.64.64,0,0,1,0,.07l.09.17Zm6.8-1.24a4.54,4.54,0,0,1-.16.75A4.54,4.54,0,0,0,23.06,33.66Zm-1.3-.44a3.53,3.53,0,0,0,0-.65,1.67,1.67,0,0,0,.5,0h0c0,.19,0,.37,0,.54h0c0,.18,0,.36-.06.52v0a1.4,1.4,0,0,1-.06.28.19.19,0,0,1,0,.07,1.42,1.42,0,0,1-.07.22.56.56,0,0,1,0,.12s-.05.1-.07.16a.75.75,0,0,1-.07.12l-.1.17h0a1.16,1.16,0,0,0,0-.18A4.13,4.13,0,0,1,21.76,33.22Zm-5.18-.91v0a9.82,9.82,0,0,1,.16-1.65.52.52,0,0,1,.67-.41,7.54,7.54,0,0,1,.76.25,6.62,6.62,0,0,1,1.08.58,7.18,7.18,0,0,1,.05,1.46c0,.45,1.07.8,1.07,1.08s-1.1,0-1.16.33a4,4,0,0,0,.22,1.75c-.2,0-.41,0-.63-.05l-.35-.07h0a2.15,2.15,0,0,1-1.36-1h0a1.67,1.67,0,0,1-.12-.23l0-.06a1.6,1.6,0,0,1-.1-.23.64.64,0,0,0,0-.07,1.17,1.17,0,0,1-.06-.2l0-.08c0-.08,0-.16-.05-.24s0-.07,0-.11l0-.16a1.23,1.23,0,0,0,0-.19c0-.05,0-.1,0-.14a.92.92,0,0,1,0-.16.28.28,0,0,0,0-.09v-.33Z"/><path class="cls-1" d="M27.32,44.24c-.41.14-.81.27-1.21.38a7.1,7.1,0,0,1-5.67-.51.21.21,0,0,0,0,.19,5.16,5.16,0,0,0,5.87.86,7.57,7.57,0,0,0,1.15-.63A.21.21,0,0,0,27.32,44.24Z"/></svg>