<svg id="Capa_1" data-name="Capa 1" xmlns="http://www.w3.org/2000/svg" viewBox="0 0 200 60"><defs><style>.cls-1{fill:#fff;}</style></defs><path class="cls-1" d="M47.76,3.09a1,1,0,0,1,1.07,1.07V55.43a1,1,0,0,1-1.07,1.07H41.15a1.15,1.15,0,0,1-1.2-.87L29.73,27.13H29.4v28.3a1,1,0,0,1-1.07,1.07H21.39a1,1,0,0,1-1.07-1.07V4.16a1,1,0,0,1,1.07-1.07H28A1.15,1.15,0,0,1,29.2,4L39.35,32.34h.4V4.16a1,1,0,0,1,1.06-1.07Z"/><path class="cls-1" d="M80.87,3.09a1.35,1.35,0,0,1,1.34,1.34V46.89c0,6.27-3.34,9.61-9.62,9.61H65.12c-6.28,0-9.62-3.34-9.62-9.61V4.43a1.35,1.35,0,0,1,1.34-1.34h6.41a1.34,1.34,0,0,1,1.33,1.34V45a2.37,2.37,0,0,0,2.67,2.67h3.47A2.37,2.37,0,0,0,73.39,45V4.43a1.35,1.35,0,0,1,1.34-1.34Z"/><path class="cls-1" d="M113.18,3.09a1,1,0,0,1,1.07,1.07v6.68a1,1,0,0,1-1.07,1.07h-7.74V55.43c0,.74-.33,1.07-1.07,1.07H97.43a1,1,0,0,1-1.07-1.07V11.91H88.62a1,1,0,0,1-1.07-1.07V4.16a1,1,0,0,1,1.07-1.07Z"/><path class="cls-1" d="M136.68,3.09c6.28,0,9.62,3.34,9.62,9.62v7.07a1,1,0,0,1-1.07,1.07h-6.94a1,1,0,0,1-1.07-1.07v-5.2a2.37,2.37,0,0,0-2.67-2.67h-3.21a2.43,2.43,0,0,0-2.67,2.67v9.21L144.56,29a2.44,2.44,0,0,1,1.74,2.47V46.89c0,6.27-3.34,9.61-9.62,9.61h-7.47c-6.21,0-9.62-3.34-9.62-9.61v-7a1,1,0,0,1,1.07-1.07h7c.73,0,1.06.33,1.06,1.07V45a2.4,2.4,0,0,0,2.67,2.67h3.21A2.37,2.37,0,0,0,137.22,45V36.14L121.4,30.93a2.39,2.39,0,0,1-1.81-2.47V12.71c0-6.28,3.41-9.62,9.62-9.62Z"/><path class="cls-1" d="M153,12.71c0-6.28,3.33-9.62,9.61-9.62h7.48c6.27,0,9.61,3.34,9.61,9.62V46.89c0,6.27-3.34,9.61-9.61,9.61h-7.48c-6.28,0-9.61-3.34-9.61-9.61ZM168.4,47.89a2.37,2.37,0,0,0,2.67-2.67V14.38a2.4,2.4,0,0,0-2.67-2.67h-3.87a2.39,2.39,0,0,0-2.67,2.67V45.22a2.37,2.37,0,0,0,2.67,2.67Z"/></svg>